<svg xmlns="http://www.w3.org/2000/svg" id="Vrstva_1" viewBox="0 0 279 283.5" width="32" height="32"><style>.st0{fill:url(#SVGID_1_);} .st1{fill:url(#SVGID_2_);} .st2{fill:url(#SVGID_3_);} .st3{fill:url(#SVGID_4_);} .st4{fill:url(#SVGID_5_);} .st5{fill:url(#SVGID_6_);} .st6{fill:url(#SVGID_7_);} .st7{fill:url(#SVGID_8_);}</style><linearGradient id="SVGID_1_" x1="74.03" x2="203.35" y1="30.57" y2="254.57" gradientUnits="userSpaceOnUse"><stop offset="0" stop-color="#F7C542"/><stop offset="1" stop-color="#EA5754"/></linearGradient><path d="M31.2 108.4h8.2l93.4.5-60-60.3-10.5-10.5c-23.1 17.1-40.4 41.7-48.1 70.3h17z" class="st0"/><linearGradient id="SVGID_2_" x1="74.03" x2="203.35" y1="30.57" y2="254.57" gradientUnits="userSpaceOnUse"><stop offset="0" stop-color="#F7C542"/><stop offset="1" stop-color="#EA5754"/></linearGradient><path d="M84.8 40.9l.2.1 72.8 73.6v-.6l.3.3.3-85.1V14.4c-28.5-4.3-58.1 1-83.7 15.7l10.5 10.5c-.1.1-.2.2-.4.3z" class="st1"/><linearGradient id="SVGID_3_" x1="74.03" x2="203.35" y1="30.57" y2="254.57" gradientUnits="userSpaceOnUse"><stop offset="0" stop-color="#F7C542"/><stop offset="1" stop-color="#EA5754"/></linearGradient><path d="M27.5 123.8H12.7c-4.3 28.5 1 58.1 15.7 83.7l10.7-10.7 1.2-1.2 5.8-5.8 66.4-65.7-85-.3z" class="st2"/><linearGradient id="SVGID_4_" x1="74.03" x2="203.35" y1="30.57" y2="254.57" gradientUnits="userSpaceOnUse"><stop offset="0" stop-color="#F7C542"/><stop offset="1" stop-color="#EA5754"/></linearGradient><path d="M194.1 243l-1.2-1.2-5.8-5.8-65.7-66.4-.3 85.1v14.8c28.5 4.3 58.1-1 83.7-15.7L194.1 243z" class="st3"/><linearGradient id="SVGID_5_" x1="74.03" x2="203.35" y1="30.57" y2="254.57" gradientUnits="userSpaceOnUse"><stop offset="0" stop-color="#F7C542"/><stop offset="1" stop-color="#EA5754"/></linearGradient><path d="M248.6 174.7h-9.9l-93.4-.5 60 60.3 10.5 10.5c23.1-17.1 40.4-41.7 48.1-70.3h-15.3z" class="st4"/><linearGradient id="SVGID_6_" x1="74.03" x2="203.35" y1="30.57" y2="254.57" gradientUnits="userSpaceOnUse"><stop offset="0" stop-color="#F7C542"/><stop offset="1" stop-color="#EA5754"/></linearGradient><path d="M249.9 78l-10.7 10.7-1.2 1.2-5.8 5.8-66.4 65.7h.4l-.3.3 85.5.3s0-.1.1-.2h14.2c4.2-28.6-1.1-58.2-15.8-83.8z" class="st5"/><linearGradient id="SVGID_7_" x1="74.03" x2="203.35" y1="30.57" y2="254.57" gradientUnits="userSpaceOnUse"><stop offset="0" stop-color="#F7C542"/><stop offset="1" stop-color="#EA5754"/></linearGradient><path d="M171.2 135.7l60.3-60L242 65.3c-17.1-23.1-41.7-40.4-70.3-48.1v14.7c-.1 0-.1-.1-.2-.1v.4l-.6 103.4.3-.3v.4z" class="st6"/><linearGradient id="SVGID_8_" x1="74.03" x2="203.35" y1="30.57" y2="254.57" gradientUnits="userSpaceOnUse"><stop offset="0" stop-color="#F7C542"/><stop offset="1" stop-color="#EA5754"/></linearGradient><path d="M44.9 207.6l-.1.1s.1.1.1.2l-.2.2-10.5 10.5c17.1 23.1 41.7 40.4 70.3 48.1v-25.1l.5-93.4-60 59.6c0-.1-.1-.2-.1-.2z" class="st7"/></svg>