<?xml version="1.0" encoding="utf-8"?>
<!-- Generator: Adobe Illustrator 24.0.1, SVG Export Plug-In . SVG Version: 6.00 Build 0)  -->
<svg version="1.1" id="图层_1" xmlns="http://www.w3.org/2000/svg" xmlns:xlink="http://www.w3.org/1999/xlink" x="0px" y="0px"
	 viewBox="0 0 595.28 841.89" style="enable-background:new 0 0 595.28 841.89;" xml:space="preserve">
<style type="text/css">
	.st0{fill-rule:evenodd;clip-rule:evenodd;fill:url(#a_2_);}
	.st1{fill-rule:evenodd;clip-rule:evenodd;fill:url(#i_2_);}
	.st2{fill-rule:evenodd;clip-rule:evenodd;fill:url(#i_3_);}
</style>
<g transform="rotate(-135 26.652 22.755)">
	<g>
		
			<linearGradient id="a_2_" gradientUnits="userSpaceOnUse" x1="-523.0906" y1="-579.0975" x2="-523.0906" y2="-593.0621" gradientTransform="matrix(-28.1535 28.1535 28.1535 28.1535 1130.2632 31227.8828)">
			<stop  offset="0" style="stop-color:#3B62AD"/>
			<stop  offset="1" style="stop-color:#784698"/>
		</linearGradient>
		<path id="a_1_" class="st0" d="M-446.53-358.53c160.91,0,291.34,130.44,291.34,291.33c0,160.91-130.44,291.34-291.34,291.34
			c-160.89,0-291.33-130.44-291.33-291.34C-737.86-228.09-607.42-358.53-446.53-358.53z M-446.53-254.18
			c-103.28,0-186.98,83.71-186.98,186.98s83.71,187,186.98,187s187-83.71,187-187S-343.24-254.18-446.53-254.18z"/>
	</g>
	<g>
		
			<linearGradient id="i_2_" gradientUnits="userSpaceOnUse" x1="-510.2279" y1="-635.0228" x2="-520.9454" y2="-622.6021" gradientTransform="matrix(-4.9766 4.9766 4.9766 4.9766 215.6286 5533.3711)">
			<stop  offset="0" style="stop-color:#DE4887"/>
			<stop  offset="1" style="stop-color:#924D9A"/>
		</linearGradient>
		<circle id="i" class="st1" cx="-445.17" cy="-120.04" r="51.5"/>
	</g>
	<g>
		
			<linearGradient id="i_3_" gradientUnits="userSpaceOnUse" x1="-510.2279" y1="-635.0228" x2="-520.9454" y2="-622.6021" gradientTransform="matrix(-4.9766 4.9766 4.9766 4.9766 215.6286 5533.3711)">
			<stop  offset="0" style="stop-color:#E8498C"/>
			<stop  offset="1" style="stop-color:#924D9A"/>
		</linearGradient>
		<circle id="i_1_" class="st2" cx="-445.17" cy="-120.04" r="51.5"/>
	</g>
</g>
</svg>
