<svg width="24px" height="13px" viewBox="0 0 24 13" version="1.1" xmlns="http://www.w3.org/2000/svg" xmlns:xlink="http://www.w3.org/1999/xlink">
    <g id="FB-Microsite" stroke="none" stroke-width="1" fill="none" fill-rule="evenodd">
        <g id="FB-Microsite-Mobile" transform="translate(-23.000000, -70.000000)" fill="#677B80">
            <path d="M44.7150548,79.117589 C44.7150548,77.9513425 43.9160548,77.4280685 42.1440959,77.4280685 L37.7734658,77.4280685 L37.7734658,80.7977945 L42.1440959,80.7977945 C43.9435342,80.7977945 44.7150548,80.2929178 44.7150548,79.117589 M41.5288356,72.0567671 L37.7734658,72.0567671 L37.7734658,75.4264932 L41.5288356,75.4264932 C43.2274384,75.4264932 43.9989589,74.9029863 43.9989589,73.7462877 C43.9989589,72.5893562 43.2183562,72.0567671 41.5288356,72.0567671 M47.0102877,79.3288082 C47.0102877,81.5781644 45.247411,82.8545616 42.1350137,82.8545616 L35.7166986,82.8545616 C35.6067808,82.8545616 35.5331918,82.7809726 35.5331918,82.6710548 L35.5331918,70.1837397 C35.5331918,70.073589 35.6067808,70 35.7166986,70 L41.5749452,70 C44.595589,70 46.2576301,71.184411 46.2576301,73.3238493 C46.2576301,74.5909315 45.6975616,75.61 44.0904795,76.0967123 C46.1288493,76.5282329 46.9553288,77.7494384 47.0102877,79.3288082 M32.8613973,70.1837397 L32.8613973,71.9282192 C32.8613973,72.0383699 32.7878082,72.1119589 32.6776575,72.1119589 L25.240274,72.1119589 L25.240274,75.3715342 L31.4105753,75.3715342 C31.520726,75.3715342 31.5940822,75.4448904 31.5940822,75.5550411 L31.5940822,77.2995205 C31.5940822,77.4099041 31.520726,77.4832603 31.4105753,77.4832603 L25.240274,77.4832603 L25.240274,82.6710548 C25.240274,82.7809726 25.1669178,82.8545616 25.0567671,82.8545616 L23.1835068,82.8545616 C23.0733562,82.8545616 23,82.7809726 23,82.6710548 L23,70.1837397 C23,70.073589 23.0733562,70 23.1835068,70 L32.6776575,70 C32.7878082,70 32.8613973,70.073589 32.8613973,70.1837397" id="Fill-11"></path>
        </g>
    </g>
</svg>