<?xml version="1.0" encoding="UTF-8"?>
<svg width="36px" height="36px" viewBox="0 0 36 36" version="1.1" xmlns="http://www.w3.org/2000/svg" xmlns:xlink="http://www.w3.org/1999/xlink">
    <!-- Generator: Sketch 51.2 (57519) - http://www.bohemiancoding.com/sketch -->
    <title>Logo Copy 2</title>
    <desc>Created with Sketch.</desc>
    <defs></defs>
    <g id="Page-1" stroke="none" stroke-width="1" fill="none" fill-rule="evenodd">
        <g id="Artboard-Copy-4" transform="translate(-54.000000, -22.000000)">
            <g id="Logo-Copy-2" transform="translate(54.000000, 22.000000)">
                <circle id="Oval" fill="#000000" cx="18" cy="18" r="18"></circle>
                <path d="M19.2603477,17.3522306 C18.9963427,16.9872361 18.8085761,16.7172861 18.6262346,16.4340092 C18.137483,15.7017628 17.9940172,14.9046044 18.1387709,14.0160881 L18.1493957,13.9590452 C18.2013389,13.7114884 18.2813514,13.4715977 18.3879264,13.239953 C18.4887322,13.0218926 18.6119274,12.8144268 18.7546336,12.6206486 C18.9380221,12.3715589 19.1528956,12.1457544 19.4069267,11.9371898 C20.257028,11.2623108 21.2628337,11.0482398 22.3887573,11.1795349 C23.1415717,11.2673214 23.7710503,11.4566347 24.8571429,11.8597821 L24.1015662,14.151932 C22.3052856,13.4851695 21.418061,13.3798542 20.785472,13.87552 C20.6981986,13.9482261 20.6212747,14.0296034 20.5578256,14.1157839 C20.5112865,14.1789785 20.4726341,14.2440706 20.4433697,14.3073698 C20.4192179,14.3598657 20.4010546,14.4115737 20.3886134,14.4624379 C20.3502772,14.7212821 20.37892,14.8600221 20.5104863,15.055978 C20.6658934,15.2978501 20.8324166,15.5374124 21.0756455,15.8736832 C21.0505025,15.8389223 21.4195796,16.3468919 21.5212283,16.489131 C21.9587694,17.1013913 22.2514558,17.5636363 22.4995021,18.0714343 C22.8206613,18.7289084 23.0234116,19.3956692 23.100343,20.128833 C23.1274495,20.4184293 23.132379,20.7077209 23.1141686,20.9960161 C23.0758176,21.6006237 22.935732,22.1937722 22.6914001,22.76616 C22.5798121,23.02778 22.4448014,23.2773011 22.2885602,23.5125271 C21.8431729,24.1835571 21.2327404,24.7278537 20.5180489,25.1100967 C20.2436895,25.2567821 19.9558625,25.3785584 19.627699,25.4834326 C17.4390885,26.1152951 14.9964071,25.4259822 13.4725507,23.7107381 L15.1376362,22.0449641 C16.0693248,23.0936677 17.6295107,23.5369224 19.0111866,23.1447805 C19.1772193,23.0904946 19.3371041,23.0223484 19.4882478,22.9415399 C19.8758673,22.7342269 20.1949997,22.4496702 20.4178858,22.1138653 C20.4920011,22.0022824 20.555058,21.8857433 20.6067617,21.7645231 C20.7379929,21.4570923 20.8109629,21.1481238 20.8309344,20.833272 C20.8404002,20.6834152 20.8379864,20.5310334 20.8238333,20.3760332 C20.7425186,19.6166308 20.433983,18.9865254 19.6978495,17.9564385 C19.6027183,17.8233195 19.2403863,17.3246335 19.2603477,17.3522306 Z M16.8199523,12.3903414 L16.8199523,18.3647892 L18.2198682,18.3647892 L18.2198682,20.7931249 L14.5315731,20.7931249 L14.5315731,12.3903414 L16.8199523,12.3903414 Z M13.3751533,17.7700426 C13.3751533,18.6754745 12.6836814,19.409439 11.8304974,19.409439 C10.9771862,19.409439 10.2857143,18.6754745 10.2857143,17.7700426 C10.2857143,16.864813 10.9771862,16.1309834 11.8304974,16.1309834 C12.6836814,16.1309834 13.3751533,16.864813 13.3751533,17.7700426 Z" id="Combined-Shape" fill="#FFFFFF" fill-rule="nonzero"></path>
            </g>
        </g>
    </g>
</svg>