<?xml version="1.0" encoding="utf-8"?>
<!-- Generator: Adobe Illustrator 16.0.3, SVG Export Plug-In . SVG Version: 6.00 Build 0)  -->
<!DOCTYPE svg PUBLIC "-//W3C//DTD SVG 1.1//EN" "http://www.w3.org/Graphics/SVG/1.1/DTD/svg11.dtd">
<svg style="display: none;" version="1.1" id="Layer_1" xmlns="http://www.w3.org/2000/svg" xmlns:xlink="http://www.w3.org/1999/xlink" x="0px" y="0px" viewBox="0 0 256 128" enable-background="new 0 0 256 128" xml:space="preserve">

	
		<path fill="#7B8080" d="M252.075,22.739c-0.065-2.126-1.995-3.365-6.746-3.959c-4.746-0.581-12.312-0.487-23.606,0.314
			c-11.289,0.825-26.312,2.331-45.88,5.234c-9.78,1.465-20.691,3.31-32.813,5.739c-12.11,2.457-25.43,5.5-39.938,9.633
			c-2.675,0.765-5.329,1.561-7.973,2.37c-3.193-0.28-6.321-0.419-9.379-0.483c-5.562-0.105-10.915,0.048-16.076,0.277
			c-10.301,0.458-19.932,1.294-28.591,1.4c-2.156,0.019-4.242-0.012-6.197-0.14c-1.938-0.131-3.775-0.37-5.194-0.741
			c-0.336-0.099-0.674-0.188-0.933-0.294l-0.208-0.071l-0.16-0.078c-0.105-0.05-0.233-0.095-0.2-0.082
			c-0.006,0.001-0.015,0.003-0.022,0c0.003-0.008-0.023-0.004-0.023-0.017l-0.009-0.016c-0.002-0.017,0.002,0.021-0.006,0.016
			c0.01-0.08,0.057-0.193,0.09-0.301c0.306-0.907,1.032-2.199,1.943-3.419c0.897-1.237,1.977-2.465,3.088-3.642
			c2.249-2.358,4.707-4.521,7.142-6.5c4.892-3.962,9.729-7.219,14.136-9.929c4.417-2.707,8.443-4.853,11.935-6.489
			c1.747-0.812,3.361-1.504,4.824-2.056c1.453-0.558,2.806-0.992,3.854-1.268c1.079-0.29,1.846-0.387,2.407-0.435
			c0.532-0.031,1.008,0.01,1.5,0.249c0.493,0.214,0.931,0.536,1.339,0.722c0.396,0.201,0.775,0.282,1.116,0.187
			c0.343-0.095,0.607-0.376,0.775-0.898c0.132-0.521,0.199-1.299-0.205-2.353c-0.206-0.522-0.535-1.113-1.055-1.673
			c-0.51-0.546-1.201-1.088-1.974-1.456c-1.561-0.777-3.365-1.066-5.163-1.098C70.298,1.422,66.28,2.182,61.77,3.598
			c-4.498,1.429-9.444,3.539-14.761,6.382c-5.308,2.866-11.005,6.409-16.853,11.132c-2.917,2.387-5.879,5.037-8.733,8.434
			c-1.415,1.731-2.828,3.61-4.04,6.119c-0.592,1.298-1.147,2.543-1.502,4.756c-0.308,1.986-0.122,4.047,0.578,5.947
			c0.694,1.912,2.024,3.548,3.594,4.895c0.414,0.315,0.817,0.651,1.27,0.917c0.435,0.266,0.931,0.563,1.342,0.767l1.137,0.521
			c0.365,0.148,0.717,0.271,1.079,0.405c1.414,0.483,2.775,0.822,4.062,1.043c1.306,0.242,2.557,0.39,3.801,0.508
			c4.938,0.427,9.672,0.3,14.488,0.1c4.397-0.202,8.853-0.504,13.37-0.812c-2.362,1.03-4.708,2.081-7.02,3.184
			c-7.802,3.693-15.344,7.765-22.48,12.398c-7.124,4.646-13.89,9.814-19.725,16.146c-0.74,0.774-1.42,1.627-2.128,2.438
			c-0.666,0.867-1.365,1.689-1.988,2.605c-1.292,1.77-2.461,3.684-3.456,5.744c-0.99,2.063-1.812,4.3-2.221,6.762
			c-0.411,2.447-0.365,5.17,0.45,7.785c0.798,2.615,2.362,5.001,4.264,6.748c1.977,1.826,4.158,2.992,6.281,3.863
			c2.133,0.873,4.244,1.404,6.328,1.835c2.087,0.43,4.139,0.676,6.173,0.855c8.126,0.655,15.904,0.047,23.457-0.965
			c7.549-1.043,14.861-2.591,21.953-4.493c7.09-1.912,13.955-4.202,20.574-6.867c6.617-2.671,12.99-5.73,19.002-9.385
			c3.003-1.83,5.916-3.812,8.688-6.02c2.766-2.215,5.416-4.629,7.771-7.446c2.344-2.812,4.457-5.995,5.859-9.694
			c0.32-0.943,0.669-1.864,0.88-2.857c0.112-0.49,0.253-0.972,0.332-1.474l0.222-1.508c0.087-0.502,0.09-1.017,0.122-1.524
			c0.015-0.511,0.066-1.021,0.041-1.529c-0.052-1.02-0.074-2.043-0.26-3.037c-0.258-2.019-0.874-3.911-1.563-5.723
			c-0.383-0.881-0.781-1.737-1.213-2.591c-0.472-0.838-0.942-1.676-1.498-2.46c-0.519-0.808-1.138-1.538-1.728-2.284
			c-0.639-0.7-1.261-1.42-1.952-2.045c-1.343-1.308-2.806-2.425-4.298-3.406c-2.993-1.971-6.128-3.348-9.216-4.39
			c-0.304-0.104-0.606-0.188-0.91-0.285c13.772-3.678,26.383-6.261,37.787-8.261c13.104-2.276,24.641-3.749,34.724-4.83
			c20.179-2.116,34.558-2.719,44.69-3.246c2.533-0.137,4.806-0.261,6.839-0.368c2.033-0.111,3.828-0.23,5.411-0.365
			c3.167-0.281,5.486-0.565,7.171-0.997C251.326,26.179,252.142,24.866,252.075,22.739z M114.48,58.934
			c2.021,1.183,3.79,2.592,5.146,4.304c0.68,0.858,1.292,1.757,1.772,2.786l0.38,0.76l0.291,0.771
			c0.233,0.51,0.327,1.029,0.488,1.545c0.095,0.256,0.099,0.517,0.155,0.775c0.038,0.26,0.116,0.517,0.128,0.779
			c0.019,0.521,0.11,1.043,0.06,1.573c0.02,1.056-0.205,2.128-0.466,3.219c-0.632,2.179-1.777,4.423-3.375,6.568
			c-1.601,2.146-3.574,4.204-5.771,6.139c-4.411,3.873-9.663,7.265-15.262,10.282c-5.611,3.023-11.62,5.655-17.858,7.982
			c-6.241,2.331-12.737,4.324-19.407,5.962c-6.669,1.633-13.527,2.92-20.476,3.629c-3.472,0.352-6.967,0.556-10.437,0.534
			c-3.469-0.011-6.917-0.294-10.156-0.943c-3.197-0.67-6.247-1.827-7.92-3.527c-0.897-0.895-1.503-1.885-1.842-3.016
			c-0.339-1.132-0.401-2.438-0.172-3.854c0.224-1.411,0.726-2.901,1.403-4.377c0.319-0.743,0.745-1.472,1.136-2.212
			c0.459-0.721,0.872-1.46,1.39-2.168c1.962-2.87,4.391-5.585,7.047-8.135c5.323-5.112,11.507-9.625,18.046-13.724
			c3.281-2.041,6.661-3.979,10.112-5.838c3.462-1.838,6.996-3.598,10.592-5.279c7.201-3.345,14.645-6.375,22.265-9.147
			c0.649-0.235,1.308-0.458,1.96-0.688c2.899-0.02,5.814,0.026,8.732,0.188c5.195,0.287,10.429,0.929,15.28,2.331
			C110.15,56.845,112.426,57.785,114.48,58.934z"/>
		<path fill="#7B8080" d="M201.517,39.461c-2.8,0.003-4.44,0.341-5.385,1.695c-0.956,1.356-1.194,3.771-1.594,8.123
			c-0.213,2.168-0.469,4.825-0.988,7.986c-0.263,1.575-0.596,3.279-1.051,5.059c-0.448,1.772-1.036,3.667-1.812,5.339l-0.147,0.303
			c-0.042,0.09-0.069,0.157-0.077,0.183c-0.024,0.066-0.046,0.136-0.076,0.204c-0.062,0.135-0.129,0.281-0.228,0.417
			c-0.183,0.291-0.512,0.488-0.892,0.541c-0.383,0.048-0.785-0.107-1.127-0.379c-0.085-0.069-0.173-0.14-0.256-0.223
			c-0.086-0.08-0.142-0.139-0.356-0.404c-0.352-0.468-0.719-0.975-1.068-1.555c-1.428-2.301-2.743-5.241-4.02-8.418
			c-1.276-3.195-2.513-6.69-3.765-10.433l-7.444,1.311c0.004,0.42,0.009,0.844,0.011,1.273c-0.019,0.432-0.039,0.867-0.057,1.304
			c-0.253,3.667-1.182,7.172-2.393,10.348c-1.219,3.18-2.738,6.048-4.371,8.555c-0.817,1.252-1.667,2.413-2.53,3.456
			c-0.433,0.522-0.87,1.017-1.307,1.467l-0.324,0.338c-0.101,0.1-0.254,0.237-0.254,0.237l-0.235,0.176
			c-0.329,0.232-0.65,0.41-0.984,0.439c-0.345,0.022-0.63-0.259-0.782-0.521c-0.166-0.265-0.256-0.528-0.311-0.761
			c-0.01-0.035-0.014-0.064-0.042-0.124l-0.138-0.307c-0.092-0.2-0.177-0.427-0.264-0.637c-0.176-0.417-0.331-0.859-0.486-1.287
			c-0.602-1.739-1.057-3.453-1.42-5.054c-0.719-3.213-1.105-5.962-1.424-8.218c-0.606-4.522-0.976-7.111-2.023-8.507
			c-1.029-1.397-2.713-1.62-5.542-1.396c-2.821,0.222-4.418,0.981-5.071,3.062c-0.638,2.073-0.379,5.462,0.969,10.757
			c0.693,2.648,1.649,5.765,3.148,9.43c0.762,1.836,1.637,3.802,2.867,5.943c0.476,0.82,1.66,2.835,2.924,4.239
			c1.302,1.444,2.834,2.653,4.664,3.23c0.912,0.289,1.92,0.41,2.905,0.286l0.728-0.127l0.716-0.223
			c0.239-0.072,0.471-0.183,0.705-0.271c0.234-0.09,0.471-0.189,0.695-0.326l0.688-0.382l0.664-0.461
			c0.45-0.285,0.866-0.673,1.299-1.019c0.423-0.359,0.813-0.781,1.229-1.17c0.2-0.204,0.398-0.428,0.601-0.641l0.28-0.307l0.2-0.229
			c2.04-2.433,3.75-5.1,5.353-8.044c1.593-2.939,3.029-6.159,4.218-9.715c0.042-0.117,0.078-0.24,0.117-0.359
			c0.771,2.049,1.578,4.039,2.521,5.979c0.367,0.741,0.736,1.471,1.17,2.204c0.201,0.364,0.44,0.73,0.67,1.093
			c0.107,0.181,0.244,0.363,0.367,0.547c0.144,0.203,0.313,0.451,0.5,0.671c1.426,1.84,3.202,3.371,5.242,4.061
			c2.022,0.72,4.228,0.679,6.138-0.013c1.917-0.679,3.488-2.041,4.742-3.621c0.307-0.399,0.596-0.815,0.895-1.22
			c0.289-0.418,0.447-0.688,0.641-0.98c0.36-0.584,0.701-1.158,0.993-1.714c0.614-1.116,1.108-2.181,1.572-3.212
			c0.905-2.056,1.611-3.957,2.214-5.729c1.196-3.543,1.971-6.561,2.508-9.132c1.044-5.137,1.107-8.486,0.328-10.495
			C205.956,40.086,204.299,39.453,201.517,39.461z"/>
	
		<path fill="#8B8989" d="M139.652,108.579c-0.054,0.088-0.109,0.155-0.168,0.198s-0.136,0.067-0.229,0.067
			c-0.103,0-0.219-0.053-0.351-0.152c-0.132-0.102-0.301-0.21-0.505-0.331c-0.202-0.122-0.448-0.232-0.732-0.332
			c-0.287-0.101-0.633-0.149-1.04-0.149c-0.383,0-0.723,0.052-1.017,0.154c-0.296,0.104-0.541,0.244-0.739,0.42
			c-0.197,0.176-0.347,0.386-0.447,0.624c-0.1,0.239-0.149,0.496-0.149,0.774c0,0.353,0.089,0.647,0.261,0.878
			c0.173,0.235,0.403,0.432,0.688,0.599c0.288,0.165,0.612,0.307,0.976,0.428c0.362,0.121,0.733,0.248,1.114,0.377
			c0.38,0.131,0.75,0.275,1.113,0.438c0.363,0.162,0.686,0.366,0.972,0.616c0.288,0.246,0.518,0.549,0.69,0.909
			c0.175,0.359,0.261,0.802,0.261,1.327c0,0.554-0.094,1.075-0.281,1.56c-0.19,0.488-0.466,0.91-0.828,1.271
			s-0.808,0.644-1.335,0.847c-0.528,0.208-1.128,0.312-1.801,0.312c-0.82,0-1.565-0.149-2.241-0.446
			c-0.676-0.299-1.252-0.701-1.729-1.209l0.495-0.812c0.047-0.065,0.104-0.121,0.173-0.166c0.066-0.043,0.142-0.064,0.226-0.064
			c0.124,0,0.265,0.064,0.424,0.199c0.159,0.132,0.358,0.279,0.597,0.438s0.528,0.307,0.866,0.438c0.34,0.133,0.753,0.2,1.244,0.2
			c0.406,0,0.771-0.059,1.087-0.17c0.32-0.111,0.589-0.27,0.811-0.474s0.391-0.444,0.508-0.729c0.117-0.283,0.178-0.597,0.178-0.946
			c0-0.384-0.089-0.698-0.261-0.942c-0.174-0.244-0.402-0.45-0.686-0.614s-0.606-0.307-0.969-0.42
			c-0.363-0.114-0.735-0.232-1.114-0.354c-0.38-0.121-0.752-0.261-1.115-0.42c-0.362-0.158-0.686-0.366-0.969-0.617
			c-0.282-0.257-0.511-0.573-0.686-0.953c-0.174-0.379-0.261-0.851-0.261-1.41c0-0.448,0.087-0.881,0.261-1.3
			c0.175-0.418,0.427-0.791,0.757-1.117c0.331-0.321,0.739-0.583,1.226-0.776c0.485-0.193,1.044-0.292,1.677-0.292
			c0.707,0,1.353,0.112,1.937,0.338c0.583,0.224,1.093,0.547,1.53,0.973L139.652,108.579z"/>
		<path fill="#8B8989" d="M145.001,119.414c-0.706,0-1.25-0.197-1.63-0.593c-0.379-0.396-0.571-0.964-0.571-1.709v-5.484h-1.078
			c-0.096,0-0.175-0.025-0.238-0.082c-0.065-0.055-0.099-0.143-0.099-0.263v-0.627l1.468-0.185l0.362-2.769
			c0.013-0.089,0.052-0.162,0.116-0.216c0.064-0.059,0.147-0.085,0.247-0.085h0.797v3.087h2.564v1.139h-2.564v5.381
			c0,0.377,0.091,0.657,0.274,0.839c0.182,0.183,0.419,0.273,0.707,0.273c0.166,0,0.307-0.021,0.428-0.065
			c0.121-0.045,0.227-0.093,0.315-0.146c0.088-0.053,0.163-0.104,0.226-0.147c0.062-0.043,0.115-0.066,0.163-0.066
			c0.083,0,0.156,0.052,0.222,0.151l0.46,0.752c-0.271,0.255-0.599,0.453-0.982,0.596
			C145.805,119.341,145.409,119.414,145.001,119.414z"/>
		<path fill="#8B8989" d="M148.888,119.271v-8.957h0.9c0.172,0,0.289,0.031,0.354,0.096c0.064,0.066,0.109,0.176,0.132,0.335
			l0.106,1.4c0.307-0.626,0.687-1.114,1.138-1.466c0.45-0.351,0.979-0.524,1.586-0.524c0.248,0,0.473,0.027,0.674,0.083
			c0.2,0.055,0.385,0.134,0.556,0.234l-0.202,1.174c-0.042,0.149-0.133,0.222-0.274,0.222c-0.083,0-0.21-0.027-0.38-0.082
			c-0.172-0.056-0.409-0.083-0.718-0.083c-0.547,0-1.008,0.158-1.375,0.477s-0.677,0.781-0.924,1.39v5.702H148.888z"/>
		<path fill="#8B8989" d="M159.562,110.171c0.535,0,1.029,0.09,1.483,0.271c0.455,0.179,0.847,0.438,1.177,0.777
			c0.331,0.338,0.588,0.758,0.774,1.258c0.186,0.497,0.279,1.063,0.279,1.701c0,0.247-0.027,0.412-0.081,0.494
			c-0.053,0.085-0.152,0.126-0.301,0.126h-5.961c0.012,0.564,0.088,1.057,0.229,1.475c0.143,0.419,0.338,0.77,0.585,1.049
			s0.543,0.489,0.884,0.627c0.343,0.141,0.727,0.209,1.149,0.209c0.395,0,0.735-0.047,1.022-0.137
			c0.286-0.093,0.531-0.189,0.738-0.297c0.206-0.107,0.378-0.204,0.518-0.297c0.139-0.091,0.257-0.137,0.356-0.137
			c0.131,0,0.232,0.05,0.301,0.15l0.443,0.575c-0.193,0.236-0.427,0.44-0.698,0.615c-0.271,0.174-0.562,0.315-0.87,0.429
			c-0.312,0.111-0.631,0.195-0.961,0.252c-0.331,0.057-0.657,0.085-0.98,0.085c-0.621,0-1.19-0.105-1.713-0.314
			c-0.521-0.209-0.973-0.516-1.353-0.919c-0.38-0.404-0.677-0.905-0.891-1.5c-0.212-0.596-0.317-1.28-0.317-2.052
			c0-0.626,0.095-1.211,0.286-1.753c0.192-0.542,0.469-1.012,0.828-1.409c0.359-0.399,0.799-0.712,1.317-0.939
			C158.327,110.285,158.911,110.171,159.562,110.171z M159.595,111.329c-0.759,0-1.359,0.221-1.793,0.659
			c-0.438,0.438-0.709,1.048-0.814,1.826h4.873c0-0.364-0.05-0.7-0.15-1.004c-0.1-0.305-0.248-0.566-0.442-0.788
			c-0.194-0.221-0.432-0.392-0.712-0.512C160.274,111.392,159.955,111.329,159.595,111.329z"/>
		<path fill="#8B8989" d="M168.83,110.171c0.535,0,1.031,0.09,1.486,0.271c0.454,0.179,0.846,0.438,1.177,0.777
			c0.33,0.338,0.588,0.758,0.774,1.258c0.185,0.497,0.278,1.063,0.278,1.701c0,0.247-0.027,0.412-0.08,0.494
			c-0.054,0.085-0.155,0.126-0.301,0.126h-5.961c0.012,0.564,0.088,1.057,0.229,1.475c0.143,0.419,0.338,0.77,0.584,1.049
			c0.248,0.279,0.543,0.489,0.885,0.627c0.343,0.141,0.727,0.209,1.15,0.209c0.395,0,0.734-0.047,1.021-0.137
			c0.286-0.093,0.532-0.189,0.739-0.297c0.206-0.107,0.378-0.204,0.516-0.297c0.14-0.091,0.259-0.137,0.358-0.137
			c0.13,0,0.231,0.05,0.301,0.15l0.442,0.575c-0.193,0.236-0.426,0.44-0.698,0.615c-0.271,0.174-0.562,0.315-0.87,0.429
			c-0.312,0.111-0.63,0.195-0.961,0.252s-0.656,0.085-0.98,0.085c-0.622,0-1.19-0.105-1.713-0.314
			c-0.521-0.209-0.973-0.516-1.353-0.919c-0.38-0.404-0.677-0.905-0.891-1.5c-0.211-0.596-0.316-1.28-0.316-2.052
			c0-0.626,0.095-1.211,0.286-1.753c0.192-0.542,0.468-1.012,0.827-1.409c0.36-0.399,0.799-0.712,1.318-0.939
			C167.598,110.285,168.182,110.171,168.83,110.171z M168.865,111.329c-0.76,0-1.36,0.221-1.794,0.659
			c-0.438,0.438-0.709,1.048-0.814,1.826h4.873c0-0.364-0.05-0.7-0.15-1.004c-0.1-0.305-0.249-0.566-0.442-0.788
			c-0.194-0.221-0.432-0.392-0.711-0.512C169.545,111.392,169.225,111.329,168.865,111.329z"/>
		<path fill="#8B8989" d="M177.269,119.414c-0.707,0-1.251-0.197-1.632-0.593c-0.38-0.396-0.571-0.964-0.571-1.709v-5.484h-1.078
			c-0.095,0-0.174-0.025-0.238-0.082c-0.065-0.055-0.099-0.143-0.099-0.263v-0.627l1.469-0.185l0.362-2.769
			c0.013-0.089,0.05-0.162,0.116-0.216c0.063-0.059,0.146-0.085,0.246-0.085h0.797v3.087h2.565v1.139h-2.565v5.381
			c0,0.377,0.092,0.657,0.274,0.839c0.183,0.183,0.419,0.273,0.707,0.273c0.166,0,0.308-0.021,0.429-0.065
			c0.122-0.045,0.226-0.093,0.314-0.146c0.088-0.053,0.164-0.104,0.227-0.147c0.062-0.043,0.116-0.066,0.164-0.066
			c0.081,0,0.154,0.052,0.221,0.151l0.459,0.752c-0.271,0.255-0.599,0.453-0.982,0.596
			C178.071,119.341,177.677,119.414,177.269,119.414z"/>
		<path fill="#8B8989" d="M179.983,106.597h1.425c0.153,0,0.278,0.039,0.38,0.116c0.1,0.076,0.166,0.173,0.204,0.29l2.615,8.811
			c0.049,0.158,0.091,0.331,0.131,0.513c0.037,0.183,0.073,0.375,0.11,0.576c0.041-0.201,0.082-0.395,0.122-0.581
			c0.042-0.185,0.09-0.354,0.143-0.508l2.981-8.811c0.034-0.1,0.103-0.191,0.207-0.276c0.104-0.087,0.228-0.13,0.377-0.13h0.493
			c0.154,0,0.279,0.039,0.377,0.116c0.097,0.076,0.166,0.173,0.206,0.29l2.964,8.811c0.107,0.308,0.2,0.656,0.283,1.054
			c0.036-0.197,0.068-0.382,0.099-0.558c0.029-0.179,0.067-0.342,0.114-0.496l2.627-8.811c0.029-0.105,0.096-0.201,0.198-0.283
			c0.104-0.082,0.229-0.123,0.377-0.123h1.336l-3.954,12.674h-1.539l-3.211-9.666c-0.065-0.183-0.123-0.396-0.178-0.637
			c-0.028,0.118-0.057,0.231-0.082,0.339c-0.028,0.111-0.056,0.208-0.085,0.298l-3.229,9.666h-1.538L179.983,106.597z"/>
		<path fill="#8B8989" d="M201.28,107.501c0,0.151-0.031,0.295-0.093,0.428c-0.063,0.131-0.144,0.249-0.247,0.353
			c-0.104,0.104-0.225,0.186-0.358,0.243c-0.137,0.061-0.281,0.088-0.434,0.088c-0.153,0-0.297-0.027-0.43-0.088
			c-0.131-0.058-0.251-0.139-0.353-0.243c-0.104-0.104-0.185-0.222-0.243-0.353c-0.06-0.133-0.088-0.276-0.088-0.428
			c0-0.156,0.028-0.301,0.088-0.439c0.059-0.138,0.14-0.26,0.243-0.362c0.102-0.104,0.222-0.184,0.353-0.244
			c0.133-0.059,0.276-0.088,0.43-0.088c0.152,0,0.297,0.029,0.434,0.088c0.134,0.061,0.254,0.141,0.358,0.244
			c0.104,0.103,0.184,0.225,0.247,0.362C201.249,107.2,201.28,107.345,201.28,107.501z M200.926,110.313v8.957h-1.574v-8.957
			H200.926z"/>
		<path fill="#8B8989" d="M205.455,106.243v13.027h-1.573v-13.027H205.455z"/>
		<path fill="#8B8989" d="M209.983,106.243v13.027h-1.573v-13.027H209.983z"/>
		<path fill="#8B8989" d="M212.251,118.298c0-0.152,0.025-0.298,0.082-0.433s0.133-0.255,0.229-0.354
			c0.099-0.101,0.215-0.179,0.352-0.238c0.134-0.059,0.279-0.088,0.431-0.088c0.155,0,0.3,0.029,0.436,0.088
			c0.136,0.06,0.253,0.138,0.354,0.238c0.101,0.1,0.179,0.22,0.235,0.354c0.054,0.135,0.082,0.28,0.082,0.433
			c0,0.161-0.028,0.307-0.082,0.438c-0.057,0.134-0.135,0.249-0.235,0.35c-0.101,0.1-0.218,0.18-0.354,0.234
			c-0.136,0.056-0.28,0.085-0.436,0.085c-0.151,0-0.297-0.029-0.431-0.085c-0.137-0.055-0.253-0.135-0.352-0.234
			c-0.096-0.101-0.172-0.216-0.229-0.35C212.276,118.604,212.251,118.459,212.251,118.298z"/>
		<path fill="#8B8989" d="M222.621,111.903c-0.046,0.063-0.092,0.115-0.139,0.15c-0.049,0.035-0.116,0.054-0.204,0.054
			s-0.186-0.036-0.289-0.109c-0.102-0.075-0.232-0.156-0.392-0.244c-0.161-0.088-0.353-0.169-0.581-0.243
			c-0.226-0.076-0.507-0.111-0.835-0.111c-0.437,0-0.823,0.077-1.159,0.234c-0.337,0.157-0.617,0.382-0.845,0.677
			c-0.228,0.296-0.398,0.652-0.512,1.071c-0.115,0.417-0.173,0.888-0.173,1.405c0,0.543,0.061,1.026,0.185,1.447
			c0.124,0.422,0.299,0.774,0.521,1.062c0.226,0.286,0.497,0.504,0.82,0.652c0.32,0.151,0.681,0.227,1.081,0.227
			c0.385,0,0.7-0.047,0.948-0.137c0.246-0.092,0.454-0.194,0.617-0.306c0.166-0.112,0.303-0.213,0.408-0.306
			c0.105-0.091,0.212-0.137,0.317-0.137c0.138,0,0.237,0.05,0.301,0.15l0.442,0.575c-0.389,0.479-0.874,0.828-1.459,1.05
			c-0.584,0.22-1.2,0.331-1.847,0.331c-0.562,0-1.082-0.104-1.562-0.312c-0.48-0.206-0.899-0.505-1.252-0.897
			c-0.353-0.392-0.634-0.873-0.835-1.444c-0.203-0.574-0.306-1.223-0.306-1.956c0-0.667,0.094-1.282,0.278-1.849
			c0.187-0.566,0.457-1.054,0.812-1.465c0.359-0.407,0.799-0.729,1.324-0.959c0.523-0.229,1.126-0.344,1.805-0.344
			c0.624,0,1.179,0.101,1.663,0.305c0.483,0.203,0.909,0.49,1.281,0.863L222.621,111.903z"/>
		<path fill="#8B8989" d="M228.398,110.171c0.655,0,1.245,0.107,1.772,0.326c0.528,0.221,0.977,0.528,1.346,0.93
			c0.367,0.398,0.651,0.887,0.849,1.455s0.297,1.204,0.297,1.905c0,0.709-0.1,1.344-0.297,1.911
			c-0.197,0.566-0.481,1.05-0.849,1.451c-0.369,0.4-0.817,0.708-1.346,0.923c-0.527,0.216-1.117,0.324-1.772,0.324
			s-1.246-0.108-1.774-0.324c-0.526-0.215-0.978-0.522-1.349-0.923c-0.372-0.401-0.657-0.885-0.857-1.451
			c-0.201-0.567-0.301-1.202-0.301-1.911c0-0.701,0.1-1.337,0.301-1.905c0.2-0.568,0.485-1.057,0.857-1.455
			c0.371-0.401,0.822-0.709,1.349-0.93C227.152,110.278,227.743,110.171,228.398,110.171z M228.398,118.167
			c0.885,0,1.544-0.298,1.981-0.889c0.436-0.595,0.653-1.42,0.653-2.48c0-1.067-0.218-1.9-0.653-2.494
			c-0.438-0.599-1.097-0.895-1.981-0.895c-0.45,0-0.838,0.074-1.168,0.229c-0.329,0.152-0.606,0.374-0.827,0.665
			c-0.222,0.286-0.386,0.642-0.496,1.064c-0.109,0.42-0.162,0.898-0.162,1.43c0,0.529,0.053,1.005,0.162,1.424
			c0.11,0.417,0.274,0.77,0.496,1.057c0.221,0.285,0.498,0.505,0.827,0.657C227.561,118.09,227.948,118.167,228.398,118.167z"/>
	

</svg>
