<?xml version="1.0" encoding="utf-8"?>
<!-- Generator: Adobe Illustrator 22.0.0, SVG Export Plug-In . SVG Version: 6.00 Build 0)  -->
<svg version="1.1" id="图层_1" xmlns="http://www.w3.org/2000/svg" xmlns:xlink="http://www.w3.org/1999/xlink" x="0px" y="0px"
	 viewBox="0 0 238.1 68" style="enable-background:new 0 0 238.1 68;" xml:space="preserve">
<style type="text/css">
	.st0{fill:#231815;}
	.st1{fill:#1CA34F;}
	.st2{fill:none;}
	.st3{fill:#333333;stroke:#333333;stroke-width:0.75;stroke-miterlimit:10;}
	.st4{fill:#FFFFFF;}
</style>
<g>
	<g>
		<g id="XMLID_1578_">
			<path id="XMLID_1580_" class="st0" d="M158,25.8c0,0,2,5.5,2.3,7.4c0.2,1.2-1.1,2.9-2.5,2.8c-0.6,0-1.8-0.1-2.4-0.2
				c-0.5-0.1-1.4-0.4-1.9-0.4c-0.7-0.1-1.5,0-1.8,0.8c-0.1,0.2,0,0.5,0,0.7c0.1,0.9,0.7,1.2,1.4,1.4c0.6,0.2,1,0.4,2.1,0.6
				c0.6,0.1,1.9,0.1,2.5,0.1c3,0,5.9-2.7,5.4-5.8c-0.3-1.9-2.3-7.4-2.3-7.4h14c0.8,0,1.4-0.6,1.4-1.4v0c0-0.8-0.7-1.4-1.4-1.4h-12.3
				c2.3-2.4,6.7-5.3,8.6-8.8c0.1-0.2,0.2-0.4,0.2-0.7c0-0.7-0.6-1.4-1.4-1.4h-23.7c-0.8,0-1.4,0.7-1.4,1.4v0c0,0.8,0.7,1.4,1.4,1.4
				h21c-1.5,2.8-6.4,5.8-8.8,7.9c-0.1,0-0.1,0.1-0.2,0.1h-13.6c-0.8,0-1.4,0.6-1.4,1.4v0c0,0.8,0.7,1.4,1.4,1.4H158z"/>
			<path id="XMLID_1579_" class="st0" d="M143.7,11c0-1.3,1-2.5,2.4-2.5h27c1.4,0,2.5,1.3,2.5,2.5v1.3c0,0.8,0.7,1.4,1.4,1.4h0
				c0.8,0,1.4-0.7,1.4-1.4V11c0-3.2-2.6-5.3-5.4-5.3H161V1.4c0-0.7-0.7-1.4-1.4-1.4h-0.1c-0.8,0-1.4,0.7-1.4,1.4v4.2h-12
				c-3,0-5.4,2.3-5.4,5.3v1.3c0,0.8,0.7,1.4,1.4,1.4h0.1c0.7,0,1.4-0.7,1.4-1.4V11z"/>
		</g>
		<g id="XMLID_1565_">
			<g id="XMLID_1575_">
				<path id="XMLID_1577_" class="st0" d="M85.2,12.6c0.3,0.3,0.5,0.7,0.5,1.2v20.6c0,2.5,2,4.5,4.5,4.5h1c0.8,0,1.4-0.6,1.4-1.4
					v-0.1c0-0.8-0.6-1.4-1.4-1.4h-1c-0.9,0-1.6-0.7-1.6-1.7V13.8c0-1.8-1.2-3.4-2.8-4.2c-0.6-0.2-1.2-0.3-1.8-0.3h-1.5
					c-0.8,0-1.4,0.6-1.4,1.4v0.1c0,0.8,0.6,1.4,1.4,1.4H84C84.5,12.1,84.9,12.3,85.2,12.6z"/>
				<path id="XMLID_1576_" class="st0" d="M87.1,6.3L87.1,6.3c0.9,0,1.5-0.6,1.5-1.4V1.4C88.6,0.6,88,0,87.2,0h-0.1
					c-0.8,0-1.4,0.6-1.4,1.4V5C85.7,5.7,86.4,6.3,87.1,6.3z"/>
			</g>
			<g id="XMLID_1566_">
				<g id="XMLID_1572_">
					<path id="XMLID_1574_" class="st0" d="M98.8,33c0.6-1.8,1.1-3.8,1.4-5.9c0.1-0.8-0.4-1.5-1.2-1.7H99c-0.8-0.1-1.5,0.4-1.6,1.2
						c-0.4,2-0.8,3.7-1.3,5.4c-0.6,1.7-1,3.2-1.9,4.8c-0.3,0.7-0.1,1.5,0.6,1.9l0,0c0.3,0.2,0.7,0.2,1.1,0.2
						c0.4-0.1,0.7-0.4,0.9-0.7C97.7,36.5,98.2,34.7,98.8,33z"/>
					<path id="XMLID_1573_" class="st1" d="M112.3,25.4L112.3,25.4c-0.8,0.4-1.1,1.2-0.8,1.9l4.6,10.7c0.3,0.7,1.1,1.1,1.9,0.8
						l0.1,0c0.7-0.3,1-1.2,0.7-1.8l-4.6-10.7C113.9,25.4,113,25.1,112.3,25.4z"/>
				</g>
				<g id="XMLID_1567_">
					<path id="XMLID_1571_" class="st2" d="M106.5,19.8c4.7,0,8.6-3.9,8.6-8.6c0-4.7-3.9-8.6-8.6-8.6c-4.7,0-8.6,3.9-8.6,8.6
						C97.9,15.9,101.7,19.8,106.5,19.8z"/>
					<path id="XMLID_1568_" class="st1" d="M106.5,22.3c6.2,0,11.2-5,11.2-11.2c0-6.2-5-11.2-11.2-11.2c-6.2,0-11.2,5-11.2,11.2
						C95.3,17.3,100.3,22.3,106.5,22.3z M106.5,2.6c4.7,0,8.6,3.9,8.6,8.6c0,4.7-3.9,8.6-8.6,8.6c-4.7,0-8.6-3.9-8.6-8.6
						C97.9,6.4,101.7,2.6,106.5,2.6z"/>
				</g>
			</g>
		</g>
		<g id="XMLID_1562_">
			<path id="XMLID_1564_" class="st0" d="M238.1,36.2l-6.8-27.8c0,0,0,0,0-0.1h5c0.8,0,1.4-0.6,1.4-1.4v0c0-0.8-0.6-1.4-1.4-1.4
				h-10.4V1.4c0-0.7-0.6-1.4-1.4-1.4h-0.1c-0.7,0-1.4,0.7-1.4,1.4v4.1h-10.4c-0.8,0-1.4,0.6-1.4,1.4v0c0,0.8,0.6,1.4,1.4,1.4h4.7
				c0,0,0,0.1,0,0.1c-0.8,5.4-2.6,13.1-3.6,17.3c-1,4-2.1,7.5-3.4,10.2c-0.3,0.7,0,1.5,0.6,1.9h0.1c0.3,0.2,0.7,0.2,1.1,0.1
				c0.3-0.1,0.6-0.3,0.8-0.7c0.9-1.8,1.6-3.9,2.3-6.2l0.9-3.1l0.3-1.3c1.1-4.4,3-12.3,3.8-17.7c0-0.2,0-0.4,0-0.5h2.9v19.7h-5.3
				c-0.8,0-1.4,0.6-1.4,1.4v0.1c0,0.8,0.6,1.4,1.4,1.4h5.3v6.5c0,0.7,0.7,1.4,1.4,1.4h0.1c0.8,0,1.4-0.7,1.4-1.4V31h5.4
				c0.8,0,1.4-0.6,1.4-1.4v-0.1c0-0.8-0.6-1.4-1.4-1.4h-5.4V8.4h2.6c-0.1,0.2-0.1,0.5,0,0.7l4.7,19.1l0.6,3.2l1.4,5.5
				c0.1,0.8,0.9,1.2,1.7,1.1l0.1,0C237.8,37.7,238.2,37,238.1,36.2z"/>
			<path id="XMLID_1563_" class="st0" d="M211.5,0.8L211,0.3c-0.5-0.5-1.2-0.4-1.7,0l-8.6,8.9c-0.3,0.3-0.4,0.7-0.3,1.1c0,0,0,0,0,0
				c0,0.4,0.1,0.7,0.5,1l0,0c0.3,0.3,0.7,0.4,1,0.4c0.4,0,0.7-0.1,1-0.4l2.7-2.8v28.8c0,0.8,0.6,1.4,1.4,1.4h0
				c0.8,0,1.4-0.6,1.4-1.4V5.7l3.1-3.2C211.9,2,211.9,1.3,211.5,0.8z"/>
		</g>
	</g>
	<g id="XMLID_463_">
		<path id="XMLID_488_" class="st3" d="M91,64.2L91,64.2l-3.2-9l-3.2,8.9l-0.1,0.1l-0.1-0.1l-3.2-9.1c0,0,0-0.1,0.1-0.1
			c0,0,0.1,0,0.1,0.1l3.2,8.9l3.2-8.9l0.1-0.1l0.1,0.1l3.2,8.9l3.2-8.9c0,0,0.1-0.1,0.1-0.1c0,0,0.1,0.1,0.1,0.1l-3.2,9.1L91,64.2z"
			/>
		<path id="XMLID_583_" class="st3" d="M106.4,64.2L106.4,64.2l-3.2-9l-3.2,8.9l-0.1,0.1l-0.1-0.1l-3.2-9.1c0,0,0-0.1,0.1-0.1
			c0,0,0.1,0,0.1,0.1l3.2,8.9l3.2-8.9l0.1-0.1l0.1,0.1l3.2,8.9l3.2-8.9c0,0,0.1-0.1,0.1-0.1c0,0,0.1,0.1,0.1,0.1l-3.2,9.1
			L106.4,64.2z"/>
		<path id="XMLID_586_" class="st3" d="M121.9,64.2L121.9,64.2l-3.2-9l-3.2,8.9l-0.1,0.1l-0.1-0.1l-3.2-9.1c0,0,0-0.1,0.1-0.1
			c0,0,0.1,0,0.1,0.1l3.2,8.9l3.2-8.9l0.1-0.1l0.1,0.1l3.2,8.9L125,55c0,0,0.1-0.1,0.1-0.1c0,0,0.1,0.1,0.1,0.1l-3.2,9.1L121.9,64.2
			z"/>
		<path id="XMLID_588_" class="st3" d="M127.6,63.7C127.6,63.7,127.6,63.7,127.6,63.7c0.1-0.1,0.1,0,0.1,0v0.4c0,0,0,0.1-0.1,0.1
			c0,0-0.1,0-0.1-0.1V63.7z"/>
		<path id="XMLID_708_" class="st3" d="M130.6,51.2C130.6,51.2,130.6,51.1,130.6,51.2c0.1-0.1,0.1,0,0.1,0v9.5
			c0,2.2,1.1,3.3,3.2,3.3c0.1,0,0.1,0,0.1,0.1c0,0,0,0.1-0.1,0.1c-2.2,0-3.3-1.2-3.3-3.5V51.2z"/>
		<path id="XMLID_710_" class="st3" d="M137.8,51.2C137.8,51.2,137.8,51.1,137.8,51.2c0.1-0.1,0.2,0,0.2,0v0.4c0,0,0,0.1-0.1,0.1
			c0,0-0.1,0-0.1-0.1V51.2z M137.8,55.1c0-0.1,0-0.1,0.1-0.1c0.1,0,0.1,0,0.1,0.1v9.1c0,0,0,0.1-0.1,0.1c0,0-0.1,0-0.1-0.1V55.1z"/>
		<path id="XMLID_714_" class="st3" d="M142.2,51.3c0-0.1,0-0.1,0.1-0.1c0,0,0.1,0,0.1,0.1v12.9c0,0,0,0.1-0.1,0.1
			c0,0-0.1,0-0.1-0.1V51.3z M148.3,64.2l-4-4c-0.4-0.4-0.4-0.8,0-1.2l4-4c0,0,0,0,0.1,0c0,0,0,0.1,0,0.1l-4,4
			c-0.3,0.4-0.3,0.7,0,1.1l4,3.9C148.4,64.1,148.4,64.2,148.3,64.2L148.3,64.2z"/>
		<path id="XMLID_717_" class="st3" d="M155.7,64.2c-1.2,0-2.2-0.4-3.1-1.3s-1.3-1.9-1.3-3.2v-0.3c0-1.2,0.4-2.3,1.3-3.2
			c0.9-0.9,1.9-1.3,3.1-1.3h3.1c0.7,0,1.2,0.2,1.6,0.6c0.5,0.5,0.7,1,0.7,1.7v0.2c0,0.6-0.2,1.2-0.7,1.6c-0.4,0.5-1,0.7-1.6,0.7h-3
			c0,0-0.1,0-0.1-0.1c0,0,0-0.1,0.1-0.1h3c0.6,0,1.1-0.2,1.5-0.6c0.4-0.4,0.6-0.9,0.6-1.5v-0.2c0-0.6-0.2-1.2-0.6-1.6
			c-0.4-0.4-0.9-0.6-1.5-0.6h-3.1c-1.2,0-2.2,0.4-3,1.3c-0.9,0.8-1.3,1.8-1.3,3v0.3c0,1.2,0.4,2.2,1.3,3.1c0.8,0.9,1.8,1.3,3,1.3
			h5.2c0,0,0.1,0,0.1,0.1c0,0,0,0.1-0.1,0.1H155.7z"/>
		<path id="XMLID_719_" class="st3" d="M166.4,55.1H164c0,0-0.1,0-0.1-0.1c0,0,0-0.1,0.1-0.1h2.4v-0.5c0-2.2,1.1-3.3,3.3-3.3h0.8
			c0,0,0.1,0,0.1,0.1c0,0,0,0.1-0.1,0.1h-0.8c-2.1,0-3.1,1.1-3.1,3.2v0.5h2.4c0,0,0.1,0,0.1,0.1c0,0,0,0.1-0.1,0.1h-2.4v9
			c0,0.1,0,0.1-0.1,0.1c-0.1,0-0.1,0-0.1-0.1V55.1z"/>
		<path id="XMLID_723_" class="st3" d="M173.4,58.7c0-1.1,0.4-2,1.1-2.6c0.7-0.7,1.6-1.1,2.6-1.1c1,0,1.9,0.4,2.6,1.1
			c0.7,0.7,1.1,1.6,1.1,2.6v1.8c0,1-0.4,1.9-1.1,2.6c-0.7,0.7-1.5,1.1-2.6,1.1c-1,0-1.9-0.4-2.6-1.1c-0.7-0.7-1.1-1.6-1.1-2.6V58.7z
			 M173.6,60.5c0,1,0.4,1.8,1.1,2.5c0.7,0.7,1.5,1.1,2.5,1.1c1,0,1.8-0.4,2.5-1.1c0.7-0.7,1.1-1.5,1.1-2.5v-1.8c0-1-0.4-1.9-1.1-2.5
			c-0.7-0.7-1.5-1.1-2.5-1.1c-1,0-1.8,0.4-2.5,1.1c-0.7,0.6-1.1,1.5-1.1,2.5V60.5z"/>
		<path id="XMLID_726_" class="st3" d="M191.1,59.2c0-1.1-0.4-2.1-1.1-2.9c-0.7-0.8-1.6-1.2-2.5-1.2c-1,0-1.8,0.4-2.5,1.2
			c-0.7,0.8-1.1,1.8-1.1,2.9v5c0,0,0,0.1-0.1,0.1c-0.1,0-0.1,0-0.1-0.1v-5c0-1.2,0.4-2.2,1.1-2.9c0.7-0.9,1.6-1.3,2.6-1.3
			c1,0,1.9,0.4,2.6,1.3c0.7,0.7,1.1,1.7,1.1,2.9v5c0,0,0,0.1-0.1,0.1c0,0-0.1,0-0.1-0.1V59.2z"/>
		<path id="XMLID_728_" class="st3" d="M196.6,55.1h-2.5c0,0-0.1,0-0.1-0.1c0,0,0-0.1,0.1-0.1h2.5v-3.8c0,0,0-0.1,0.1-0.1
			c0,0,0.1,0,0.1,0.1v3.8h2.4c0,0,0.1,0,0.1,0.1c0,0.1,0,0.1-0.1,0.1h-2.4v5.7c0,2.1,1,3.2,3.1,3.2h0.8c0,0,0.1,0,0.1,0.1
			c0,0.1,0,0.1-0.1,0.1h-0.8c-2.2,0-3.2-1.1-3.2-3.4V55.1z"/>
		<path id="XMLID_730_" class="st3" d="M203.5,63.7C203.5,63.7,203.5,63.7,203.5,63.7c0.1-0.1,0.1,0,0.1,0v0.4c0,0,0,0.1-0.1,0.1
			c0,0-0.1,0-0.1-0.1V63.7z"/>
		<path id="XMLID_733_" class="st3" d="M210.4,64.2c-1.1,0-2-0.4-2.7-1.3c-0.8-1-1.2-2.1-1.2-3.3c0-1.3,0.4-2.4,1.2-3.3
			c0.8-0.9,1.7-1.3,2.7-1.3h3.4c0,0,0.1,0,0.1,0.1c0,0,0,0.1-0.1,0.1h-3.4c-1,0-1.9,0.4-2.7,1.3c-0.7,0.9-1.1,1.9-1.1,3.2
			c0,1.3,0.4,2.3,1.1,3.2c0.7,0.9,1.6,1.3,2.7,1.3h3.4c0,0,0.1,0,0.1,0.1c0,0.1,0,0.1-0.1,0.1H210.4z"/>
		<path id="XMLID_735_" class="st3" d="M216.7,58.7c0-1.1,0.4-2,1.1-2.6c0.7-0.7,1.6-1.1,2.6-1.1c1,0,1.9,0.4,2.6,1.1
			c0.7,0.7,1.1,1.6,1.1,2.6v1.8c0,1-0.4,1.9-1.1,2.6c-0.7,0.7-1.5,1.1-2.6,1.1c-1,0-1.9-0.4-2.6-1.1c-0.7-0.7-1.1-1.6-1.1-2.6V58.7z
			 M216.9,60.5c0,1,0.4,1.8,1.1,2.5c0.7,0.7,1.5,1.1,2.5,1.1c1,0,1.8-0.4,2.5-1.1c0.7-0.7,1.1-1.5,1.1-2.5v-1.8c0-1-0.4-1.9-1.1-2.5
			c-0.7-0.7-1.5-1.1-2.5-1.1c-1,0-1.8,0.4-2.5,1.1c-0.7,0.6-1.1,1.5-1.1,2.5V60.5z"/>
		<path id="XMLID_738_" class="st3" d="M237.9,58.5c0-1-0.3-1.8-0.8-2.4c-0.5-0.7-1.2-1-1.9-1c-0.7,0-1.3,0.3-1.9,1
			c-0.5,0.6-0.8,1.4-0.8,2.4v5.6c0,0.1,0,0.1-0.1,0.1c0,0-0.1,0-0.1-0.1v-5.6c0-1-0.3-1.8-0.8-2.4c-0.5-0.7-1.2-1-1.9-1
			s-1.3,0.3-1.9,1c-0.5,0.6-0.8,1.4-0.8,2.4v5.6c0,0.1,0,0.1-0.1,0.1c0,0-0.1,0-0.1-0.1v-5.6c0-0.9,0.3-1.7,0.8-2.5
			c0.5-0.7,1.2-1,2-1c1.5,0,2.4,0.9,2.7,2.7c0.4-1.8,1.3-2.7,2.7-2.7c0.8,0,1.5,0.3,2,1c0.5,0.8,0.8,1.6,0.8,2.5v5.6
			c0,0.1,0,0.1-0.1,0.1c-0.1,0-0.1,0-0.1-0.1V58.5z"/>
	</g>
	<g>
		<path class="st1" d="M59.5,68h-51C3.8,68,0,64.2,0,59.5v-51C0,3.8,3.8,0,8.5,0h51C64.2,0,68,3.8,68,8.5v51
			C68,64.2,64.2,68,59.5,68z"/>
		<g id="XMLID_26_">
			<path class="st4" d="M34,49c-10.4,0-20.1-5.2-26-14c-0.4-0.6-0.4-1.3,0-1.9c5.8-8.8,15.5-14,26-14c10.4,0,20.1,5.2,26,14
				c0.4,0.6,0.4,1.4,0,1.9C54.1,43.8,44.4,49,34,49z M11.6,34c5.2,7.2,13.5,11.5,22.4,11.5c8.9,0,17.1-4.3,22.4-11.5
				C51.1,26.8,42.9,22.5,34,22.5C25.2,22.5,16.9,26.8,11.6,34z"/>
			<g id="XMLID_27_">
				<g id="XMLID_29_">
					<path class="st4" d="M12.6,55.8H8.7c-3.4,0-6.2-2.8-6.2-6.2V18.4c0-3.4,2.8-6.2,6.2-6.2h3.9c1,0,1.8,0.8,1.8,1.8
						s-0.8,1.8-1.8,1.8H8.7c-1.5,0-2.7,1.2-2.7,2.7v31.2c0,1.5,1.2,2.7,2.7,2.7h3.9c1,0,1.8,0.8,1.8,1.8S13.6,55.8,12.6,55.8z"/>
				</g>
				<g id="XMLID_28_">
					<path class="st4" d="M59.4,55.8h-3.9c-1,0-1.8-0.8-1.8-1.8s0.8-1.8,1.8-1.8h3.9c1.5,0,2.7-1.2,2.7-2.7V18.4
						c0-1.5-1.2-2.7-2.7-2.7h-3.9c-1,0-1.8-0.8-1.8-1.8s0.8-1.8,1.8-1.8h3.9c3.4,0,6.2,2.8,6.2,6.2v31.2
						C65.5,53,62.8,55.8,59.4,55.8z"/>
				</g>
			</g>
			<path class="st4" d="M34,45.4c-6.3,0-11.4-5.1-11.4-11.4S27.7,22.6,34,22.6c6.3,0,11.4,5.1,11.4,11.4S40.3,45.4,34,45.4z
				 M34,25.1c-4.9,0-8.9,4-8.9,8.9s4,8.9,8.9,8.9s8.9-4,8.9-8.9S38.9,25.1,34,25.1z"/>
			<path class="st4" d="M40.6,42.2c-0.5,0-1-0.3-1.2-0.8L34,28.3l-5.4,13.1c-0.3,0.6-1,0.9-1.6,0.7c-0.6-0.3-0.9-1-0.7-1.6l6.6-15.9
				c0.2-0.5,0.6-0.8,1.2-0.8s1,0.3,1.2,0.8l6.6,15.9c0.3,0.6,0,1.4-0.7,1.6C40.9,42.1,40.7,42.2,40.6,42.2z"/>
		</g>
	</g>
</g>
</svg>
