<?xml version="1.0" encoding="UTF-8"?>
<svg width="72px" height="72px" viewBox="0 0 72 72" version="1.1" xmlns="http://www.w3.org/2000/svg" xmlns:xlink="http://www.w3.org/1999/xlink">
    <!-- Generator: Sketch 51.3 (57544) - http://www.bohemiancoding.com/sketch -->
    <title>Artboard 8 Copy 3</title>
    <desc>Created with Sketch.</desc>
    <defs></defs>
    <g id="Artboard-8-Copy-3" stroke="none" stroke-width="1" fill="none" fill-rule="evenodd">
        <path d="M13.9801902,49.6711813 C6.53263814,35.8004802 25.1318158,6.03761162 41.8789568,5.02687836 C58.6260977,4.01614511 73.5212019,31.7575472 64.221613,46.6389815 C54.9220242,61.5204158 21.4277423,63.5418823 13.9801902,49.6711813 Z" id="Shape-Copy-6" fill="#FF9933" fill-rule="nonzero"></path>
        <path d="M40.1791582,35.6374051 C45.8118959,42.142798 54.7409376,46.5773128 55.6818939,51.8886777 C56.6228502,57.2000425 49.5757211,63.3882574 42.3092387,65.4951277 C35.0427564,67.6019979 27.5569207,66.6275236 21.2911757,63.196491 C15.0254307,59.7654584 9.97977636,53.8778674 7.18987356,46.9576204 C4.39997076,40.0373733 3.86581953,31.0844701 8.02239145,24.9160023 C12.1789634,18.7475346 21.0262584,15.3635023 26.6181227,17.9596217 C32.209987,20.5557411 34.5464206,29.1320122 40.1791582,35.6374051" id="Shape-Copy-5" fill="#FF0066" fill-rule="nonzero"></path>
        <path d="M52.6824402,43.992 C52.6824402,51.384 46.2504402,54.6 39.2904402,54.6 L22.7784402,54.6 L22.7784402,17.016 L39.0504402,17.016 C42.6024402,17.016 46.2504402,18.168 48.5544402,20.52 C50.1384402,22.152 51.0504402,24.504 51.0504402,26.952 C51.0504402,30.744 48.6504402,33.528 45.0504402,35.016 L45.0504402,35.16 C49.8504402,35.928 52.6824402,39.48 52.6824402,43.992 Z M41.6424402,28.488 C41.6424402,26.184 39.9624402,25.128 37.3224402,25.128 L31.9464402,25.128 L31.9464402,31.896 L37.4184402,31.896 C40.1544402,31.896 41.6424402,30.6 41.6424402,28.488 Z M43.2264402,42.888 C43.2264402,40.488 41.2104402,39.384 38.9064402,39.384 L31.9464402,39.384 L31.9464402,46.44 L38.9544402,46.44 C41.3544402,46.44 43.2264402,45.288 43.2264402,42.888 Z" id="B-Copy" fill="#FFFFFF"></path>
    </g>
</svg>