<?xml version="1.0" encoding="UTF-8" standalone="no"?>
<svg
   xmlns:dc="http://purl.org/dc/elements/1.1/"
   xmlns:cc="http://creativecommons.org/ns#"
   xmlns:rdf="http://www.w3.org/1999/02/22-rdf-syntax-ns#"
   xmlns:svg="http://www.w3.org/2000/svg"
   xmlns="http://www.w3.org/2000/svg"
   xmlns:sodipodi="http://sodipodi.sourceforge.net/DTD/sodipodi-0.dtd"
   xmlns:inkscape="http://www.inkscape.org/namespaces/inkscape"
   id="1d6edf59-d8cf-4e9b-810e-a8bd2546aaca"
   data-name="Layer 1"
   viewBox="0 -20 300 300"
   version="1.1"
   sodipodi:docname="default.svg"
   inkscape:version="0.92.4 (5da689c313, 2019-01-14)">
  <metadata
     id="metadata1338">
    <rdf:RDF>
      <cc:Work
         rdf:about="">
        <dc:format>image/svg+xml</dc:format>
        <dc:type
           rdf:resource="http://purl.org/dc/dcmitype/StillImage" />
        <dc:title></dc:title>
      </cc:Work>
    </rdf:RDF>
  </metadata>
  <sodipodi:namedview
     pagecolor="#ffffff"
     bordercolor="#666666"
     borderopacity="1"
     objecttolerance="10"
     gridtolerance="10"
     guidetolerance="10"
     inkscape:pageopacity="0"
     inkscape:pageshadow="2"
     inkscape:window-width="3200"
     inkscape:window-height="1675"
     id="namedview1336"
     showgrid="false"
     inkscape:zoom="2.2666667"
     inkscape:cx="87.688673"
     inkscape:cy="160.42236"
     inkscape:window-x="-13"
     inkscape:window-y="-13"
     inkscape:window-maximized="1"
     inkscape:current-layer="1d6edf59-d8cf-4e9b-810e-a8bd2546aaca" />
  <defs
     id="defs1257">
    <style
       id="style1255">.\38 79ca6a0-e46e-46e7-9705-41e59a64984f{fill:#fff;}.\37 7be7357-cefb-4cbd-a706-d6e806d55a76,.f87b461e-c82c-4e08-9f61-a927f69d4a52{fill:#8b898a;}.\37 7be7357-cefb-4cbd-a706-d6e806d55a76{opacity:0.2;}.\30 fbc04c4-e69f-43fd-aa13-b6c199ea88b3{fill:#4b4c4b;}.\35 f4cdcab-257d-46e3-9af3-8d19919e15ae{fill:#e6ca98;}.f116c2d5-61d1-4f5a-b301-d41399e01dfa{fill:#dabd8f;}</style>
  </defs>
  <path
     class="77be7357-cefb-4cbd-a706-d6e806d55a76"
     d="M206.41,192.67a26.61,26.61,0,0,0-7.13-10.24,54.85,54.85,0,0,0-17.49-10.79,52.05,52.05,0,0,0-18.17-3.54,33,33,0,0,0-9.92,1,14.56,14.56,0,0,0-9.09,7.37l-4-.45a55.49,55.49,0,0,1-11.75-2.62l-.64-.29a9.87,9.87,0,0,0-11.54,1.29,9.17,9.17,0,0,0-1.89-.17,10.12,10.12,0,0,0-7,3,10,10,0,0,0-2.8,7.07,10.14,10.14,0,0,0,3,7,60.56,60.56,0,0,0,10,7.77,28.51,28.51,0,0,0,13.19,4,23.2,23.2,0,0,0,11.42-2.67c2.25,2,4.62,3.82,7.07,5.59a76.15,76.15,0,0,0,16.57,8.82,65.94,65.94,0,0,0,8,2.66,36.9,36.9,0,0,0,11.44,1.34,24.32,24.32,0,0,0,12-3.69,21.61,21.61,0,0,0,7.66-8.6C207.32,202.17,208.09,197.26,206.41,192.67Z"
     id="path1261" />
  <path
     class="879ca6a0-e46e-46e7-9705-41e59a64984f"
     d="M155.26,70.71a47.58,47.58,0,0,0-4.09-2.94,33.37,33.37,0,0,0-10.61-5l-.23-.06a39.43,39.43,0,0,0-14.46-1.42c-11.3,1-21.7,6.56-29.51,14.62a43,43,0,0,0-5.15,6.46A8,8,0,0,0,84.48,82a18.61,18.61,0,0,0-5.28,3.75C75.71,89,73,93.25,73.78,98.24c0,.24.08.47.13.69a11.65,11.65,0,0,0-.46,2.17c-.31,3.18,1,6.64,4.13,7.93s6.41.12,8.88-2.07a14.89,14.89,0,0,0,3.05-.81,12.94,12.94,0,0,0,11.82,6.46,9.64,9.64,0,0,0,8.75-9.4,24,24,0,0,0-.79-6.08,19.2,19.2,0,0,1-.32-2.26c0-.05,0-.54,0-.85s0-.4,0-.61c.07-.73.17-1.46.31-2.18,0-.07,0-.28.08-.49s.13-.43.2-.64a21.77,21.77,0,0,1,.8-2.08c.15-.34.31-.68.48-1s.22-.44.34-.66c.29-.52.24-.44-.16.24a11.63,11.63,0,0,1,2.22-3.1,7.85,7.85,0,0,0,2.43-.35L116,83l-.15.07a6.53,6.53,0,0,1,1.25-.31c.77-.19,1.54-.36,2.31-.52,1.61-.33,3.23-.62,4.86-.85a79.76,79.76,0,0,1,9.64-.76h1.32c.78,0,1.57,0,2.36.08,1.64.08,3.29.21,4.92.39a78.35,78.35,0,0,1,9.73,1.73c2.8.68,5.94-1.89,6.23-4.64A8.31,8.31,0,0,0,155.26,70.71ZM98.08,95.32a5.16,5.16,0,0,0-.72-1.13c.22-.53.44-1,.68-1.57A24.29,24.29,0,0,0,98.08,95.32Zm.7,5-.31-.76c0-.08,0-.16,0-.24s0-.36,0-.55l.06-.38c.12.68.25,1.36.39,2l-.06-.1Z"
     id="path1263" />
  <path
     class="f87b461e-c82c-4e08-9f61-a927f69d4a52"
     d="M86.74,110.12c1.68-.06,3.37-.21,5.05-.14a12.94,12.94,0,0,1,3.3.64,27.83,27.83,0,0,1,4.07,1.57c2.53,1.25,5,2.6,7.49,4,1.86,1,2,1.71.84,3.48a10.7,10.7,0,0,0-.59,1.23,7,7,0,0,1-1.8-.5c-4.19-2.42-8.34-4.92-12.53-7.35-1.43-.83-2.95-1.52-4.43-2.28l-1.43-.44Z"
     id="path1265" />
  <path
     class="0fbc04c4-e69f-43fd-aa13-b6c199ea88b3"
     d="M108.48,114.24a25.22,25.22,0,0,0-8.18-3.82c-5-1.16-10-2.15-15.22-1.75-1.56.12-3,.42-4,1.77-2.09,3-5,3.91-8.43,3.29a23.55,23.55,0,0,0-9,.35,5,5,0,0,0-1.93,1.31c-.75.66-1.35,1.49-2.13,2.1C58,118.77,56,118.6,54,118.67c-2.15.1-4.31.25-6.47.29-2,0-4-.09-5.94-.11a6.14,6.14,0,0,0-1.12.21c6.62,1.25,13.34,1.26,20.05,1.5a7.32,7.32,0,0,0,2.42-.67.91.91,0,0,0,.45-.56,4.81,4.81,0,0,1,4.41-3.83c3.75-.07,7.5-.07,11.26,0a3.84,3.84,0,0,0,2.93-1,19.39,19.39,0,0,1,6-3.71l-1.44-.45-.32-.08.35-.08c1.69-.06,3.37-.21,5-.14a13.3,13.3,0,0,1,3.3.64,29,29,0,0,1,4.07,1.57c2.53,1.25,5,2.61,7.5,4,1.26.69,1.73,1.23,1.53,2.07a21.42,21.42,0,0,0,2.35-3.22C110.05,115.27,109.62,115,108.48,114.24Z"
     id="path1267" />
  <path
     class="f87b461e-c82c-4e08-9f61-a927f69d4a52"
     d="M58.09,118.89c-2.16.1-4.32.25-6.48.29-2,0-4-.09-5.94-.11a5.52,5.52,0,0,0-1.12.21h0a26,26,0,0,0-3.14-1c-1.51-.28-3-.37-4.57-.52a16.26,16.26,0,0,1-2.43-.21,24.48,24.48,0,0,1-2.8-1.08l-.14-.17h0l-.35-.08h0l-3.77-2c-2.55-1.34-5.27-2.43-7.18-4.73a9.91,9.91,0,0,1-.05-3,2.2,2.2,0,0,0-.1-2.13v0c1-1.49,2.74-.77,4-1.43,1.05,1.22,2.7.75,3.95,1.41,1.65.85,3.26,1.8,4.94,2.56a19.93,19.93,0,0,0,3,.86,4.62,4.62,0,0,1,3,2l-.24,1.67,2.44.8c0,.06.07.15.13.19,2,1.38,3.34,3.56,5.69,4.44a6.61,6.61,0,0,0,1.49.19c2.49.29,5,.52,7.47.9A7.72,7.72,0,0,1,58.09,118.89Z"
     id="path1269" />
  <path
     class="0fbc04c4-e69f-43fd-aa13-b6c199ea88b3"
     d="M31.64,116.46a24.48,24.48,0,0,0,2.8,1.08,16.26,16.26,0,0,0,2.43.21c1.53.15,3.06.24,4.57.52a26,26,0,0,1,3.14,1c-3.37.53-6.73,1.25-10.14.41-3.57-.87-7.24-1.44-10.55-3.18-1.46-.77-2.87-1.62-4.31-2.44a.45.45,0,0,1-.18-.15c-.88-1.78-2.41-3.43-1.4-5.64.61-1.35,1.4-2.62,2.11-3.93a2.2,2.2,0,0,1,.1,2.13,9.91,9.91,0,0,0,.05,3,6.68,6.68,0,0,0,3.11,4,30.19,30.19,0,0,0,3.87,1.81,37.68,37.68,0,0,0,4,1h0l.35.08h0Z"
     id="path1271" />
  <path
     class="0fbc04c4-e69f-43fd-aa13-b6c199ea88b3"
     d="M36.05,107.76a19.93,19.93,0,0,1-3-.86c-1.68-.76-3.29-1.71-4.94-2.56-1.25-.66-2.9-.19-3.95-1.41-1.28.66-3-.06-4,1.43a17.73,17.73,0,0,1,1.24-2c.17-.22.66-.25,1-.27,3.17-.14,5.82,1.23,8.41,2.86C32.46,106,34.28,106.81,36.05,107.76Z"
     id="path1273" />
  <path
     class="0fbc04c4-e69f-43fd-aa13-b6c199ea88b3"
     d="M41.25,112.2l-2.44-.8.24-1.67A4.35,4.35,0,0,1,41.25,112.2Z"
     id="path1275" />
  <path
     class="879ca6a0-e46e-46e7-9705-41e59a64984f"
     d="M31.21,116.22a37.68,37.68,0,0,1-4-1,30.19,30.19,0,0,1-3.87-1.81,6.68,6.68,0,0,1-3.11-4c1.91,2.3,4.63,3.39,7.18,4.73Z"
     id="path1277" />
  <path
     class="879ca6a0-e46e-46e7-9705-41e59a64984f"
     d="M31.64,116.46l-.14-.17Z"
     id="path1279" />
  <path
     class="879ca6a0-e46e-46e7-9705-41e59a64984f"
     d="M31.53,116.29l-.35-.08Z"
     id="path1281" />
  <path
     class="f87b461e-c82c-4e08-9f61-a927f69d4a52"
     d="M43.21,123l-.47.29-.15,0a1.38,1.38,0,0,0-.62.41l-.29.19a16.5,16.5,0,0,1-1.79.88.9.9,0,0,0-.28,0c-.12,0-.18.14-.29.2-.62.29-1.24.27-1.83.53a6.1,6.1,0,0,1-1.06.4L36,126c-.56.13-1.13.23-1.7.31H34a6.81,6.81,0,0,0-1.05.15l-.24,0h-.16c-.11,0-.29,0-.42,0l-.26,0h-.22a1.39,1.39,0,0,0-.48,0,.17.17,0,0,1-.06.08h0a1.57,1.57,0,0,1-.23-.09l-.11,0a.87.87,0,0,0-.69-.06l-.18,0a2.7,2.7,0,0,0-.44.07h-.06a.75.75,0,0,1-.45-.2l-.1,0a.87.87,0,0,0-.71,0h0l-.15,0a.79.79,0,0,0-.5-.15l-.27,0a11.75,11.75,0,0,1-1.37-.26l-.12,0a1.82,1.82,0,0,0-.3-.11l-.19,0a3.43,3.43,0,0,0-.81-.2h0l-.21-.09s0,0,0,0a1.45,1.45,0,0,1-.44-.12s0,0,0,0-.21-.07-.15-.15-.15,0-.2,0c-.06-.15-.64-.3-.87-.32l-.47-.29c-.29-.15-.41-.2-.49-.1l-.39-.2,0,.1h0v0l-.09.18h0l0,0c.24.11.44.18.64.28a2.18,2.18,0,0,0,.73.42l.26.11,1,.4a2.81,2.81,0,0,0,.56.18h.06a8.52,8.52,0,0,0,1,.27l.22.05.06,0a1.62,1.62,0,0,0,.83.35,10,10,0,0,0,2.81.37l.51,0c.49,0,1,.06,1.47,0a.49.49,0,0,0,.24,0c0,.23.88.18,1.15.1,0,0,0,0,0,0a5,5,0,0,1,1.12-.07c.09-.06.21-.09.28-.15l.37,0a1.44,1.44,0,0,0,.38.15c.07-.19.43-.24.63-.27l.38-.06,0,0a2.21,2.21,0,0,0,.35-.08s0,0,0,0c.18,0,.32-.08.34-.19l.11,0a1.46,1.46,0,0,0,.55,0c.21,0,.42-.19.64-.26l.27-.13c.35-.1.68-.23,1-.35a3.75,3.75,0,0,0,1.09-.39,2.35,2.35,0,0,0,.61-.32h0c.47-.22.92-.48,1.39-.71l1.33-.83Zm-19.64,2.2-.24-.1h0Zm-.81-.37Z"
     id="path1283" />
  <path
     class="f87b461e-c82c-4e08-9f61-a927f69d4a52"
     d="M43.81,126.7l-.39.19H43.3a.92.92,0,0,0-.52.26l-.23.15-1.41.63a.55.55,0,0,0-.22,0c-.1,0-.14.12-.22.17-.46.27-1,.19-1.4.46a4.5,4.5,0,0,1-.78.42l-.31.12-1.25.45-.26,0a4,4,0,0,0-.76.3l-.18.06-.12,0a1.84,1.84,0,0,0-.33,0,.87.87,0,0,0-.18.11l-.17,0a.68.68,0,0,0-.37.07.11.11,0,0,1,0,.08l0,0-.2,0-.06.07a.53.53,0,0,0-.52.12l-.14,0a1.26,1.26,0,0,0-.3.18h0a.49.49,0,0,1-.39,0l-.06.06a.58.58,0,0,0-.49.24h-.14a.5.5,0,0,0-.4,0l-.2,0a8.68,8.68,0,0,1-1,.19l-.1,0a.65.65,0,0,0-.24,0l-.14,0a2.6,2.6,0,0,0-.63,0h0l-.17,0s0,0,0,0a1.3,1.3,0,0,1-.34,0s0,0,0,0-.17,0-.13-.12a.66.66,0,0,1-.15,0c0-.12-.47-.17-.65-.18l-.32-.22c-.19-.14-.28-.17-.36-.09l-.25-.2-.07.08h0v0l-.14.15h0l0,0c.17.13.31.22.46.32a1.17,1.17,0,0,0,.57.36l.21.08a6.17,6.17,0,0,0,.82.21,1.48,1.48,0,0,0,.46.05l.05,0a3.67,3.67,0,0,0,.81,0h.17l.05,0a1.06,1.06,0,0,0,.71,0,6.55,6.55,0,0,0,2.12-.54l.35-.2,1.08-.31a.3.3,0,0,0,.18,0c.1.22.69,0,.87-.14,0,0,0,0,0,0a3,3,0,0,1,.83-.26c0-.06.13-.11.18-.18l.27-.09a.87.87,0,0,0,.32.11c0-.19.27-.28.42-.33l.29-.08,0,0a1.09,1.09,0,0,0,.25-.1v0c.13,0,.22-.1.23-.21l.07,0a1.26,1.26,0,0,0,.43,0,3.57,3.57,0,0,0,.46-.26.87.87,0,0,0,.2-.12l.76-.31a3.84,3.84,0,0,0,.84-.3,1.51,1.51,0,0,0,.47-.25h0c.73-.32,1.45-.65,2.17-1Zm-15,4.48-.19,0h0Zm-.63-.21Z"
     id="path1285" />
  <path
     class="f87b461e-c82c-4e08-9f61-a927f69d4a52"
     d="M44.53,130.83l-.16.13H44.3c-.13,0-.15.11-.2.2l-.07.11-.56.48s-.1,0-.14,0,0,.09,0,.14c-.15.21-.48.14-.61.36a1,1,0,0,1-.26.35l-.12.1-.51.38-.12,0c-.14,0-.2.18-.29.26l-.07.06-.06,0s-.13,0-.16,0,0,.06-.06.09l-.07,0c-.07,0-.12,0-.18.06a.26.26,0,0,1,0,.08h0l-.12,0v.06c-.11,0-.22,0-.23.12l-.06,0a.34.34,0,0,0-.08.17h0a.22.22,0,0,1-.23,0v0a.18.18,0,0,0-.16.24h-.07c-.1,0-.16,0-.19.06l-.09.05c-.13.1-.26.21-.41.31l0,0a.27.27,0,0,0-.12,0,.1.1,0,0,0,0,0,.49.49,0,0,0-.24.21h0l-.09,0,0,0a.45.45,0,0,1-.13.11s0,0,0,0-.06.06-.1,0,0,.07,0,.1-.25.1-.28.2a.66.66,0,0,0-.2.06c-.11,0-.15.08-.1.19l-.14.08.06.09h0l0,0,.09.18h0l0,0a1.46,1.46,0,0,1,.21-.16.34.34,0,0,0,.29-.1l.09-.05a3.79,3.79,0,0,1,.34-.2c.06,0,.15,0,.18-.11a0,0,0,0,0,0,0,1.7,1.7,0,0,0,.3-.23l.07,0h0a.3.3,0,0,0,.34-.06c.27-.21.67-.28.84-.62l.1-.18L41,134a.05.05,0,0,0,.07,0c.15.19.37,0,.42-.13s0,0,0,0,.24-.25.34-.23,0-.1,0-.15l.11-.09c.08,0,.16.1.23.1a.22.22,0,0,1,.09-.29l.13-.06a0,0,0,0,1,0,0,.44.44,0,0,0,.11-.08v0c.07,0,.09-.08,0-.17l0,0c.09,0,.17,0,.23,0s.1-.16.15-.22a.37.37,0,0,0,.06-.1l.31-.25c.16,0,.24-.14.36-.24s.15-.09.16-.19h0l.87-.76Zm-6.11,4.46-.08.05h0Zm-.3.13Z"
     id="path1287" />
  <path
     class="5f4cdcab-257d-46e3-9af3-8d19919e15ae"
     d="M229.09,131c-1.4-3.49-3.71-6.41-6-9.4a35.53,35.53,0,0,0-9.93-8.53,45.83,45.83,0,0,0-16.44-6.52A120.14,120.14,0,0,0,181,104.62a.57.57,0,0,1-.13-.08c-3.55-1.86-7.74-.9-11.49-.36l-6.35.93-1.25.18a2.56,2.56,0,0,0-2.54.43,8.68,8.68,0,0,0-2.85,5,36.42,36.42,0,0,1-3,4.26,6.85,6.85,0,0,0-1.14.76c-.77.69-1.41,1.52-2.18,2.22a8.4,8.4,0,0,1-1.67,1.15l-.57.29a2.54,2.54,0,0,0-1.43.16,57.53,57.53,0,0,1-15.59,4,2.8,2.8,0,0,0-1.24.43,3,3,0,0,0-1.39-.16c-6.89.79-12.74,4.65-18.3,8.5a2.5,2.5,0,0,0-1,1.6s0,.11-.08.17c-.21.56-.86,1-1.2,1.49-1.38,2.18-3.37,4-4,6.64-.39,1.61-.56,3.28-1,4.89a8.28,8.28,0,0,0,.68,5.5c.63,1.49,1.42,2.92,2.07,4.41,1,2.27,1.86,4.6,3,6.83a3.19,3.19,0,0,0,.54,1.76c4.44,6.76,8.38,14.3,15.54,18.57a28.27,28.27,0,0,0,10.29,3.74c2.59.39,5.61.64,8.15-.24a2.43,2.43,0,0,0,1.35.17,9.72,9.72,0,0,0,4.6-2.09,8.19,8.19,0,0,0,2.27-3h0c1.9.66,3.74,1.49,5.59,2.26,3.84,1.61,7.91,3,12.11,2.29a3.47,3.47,0,0,0,.91-.29,35.39,35.39,0,0,0,7.56.31c5.48-.31,11-.88,16.43-1.62a55.91,55.91,0,0,0,15.69-4.11c4.85-2.21,9.11-5.46,13.26-8.76,3.49-2.78,7.37-6,8.33-10.55l0,0c0,.21,0,.42-.07.64a13.92,13.92,0,0,0,2-6.11,56.83,56.83,0,0,0-.08-12A52.14,52.14,0,0,0,229.09,131Z"
     id="path1289" />
  <path
     class="f87b461e-c82c-4e08-9f61-a927f69d4a52"
     d="M202.36,92.05c-1.4-.64-2.78-1.35-4.22-1.89a11.75,11.75,0,0,0-3-.61,25.21,25.21,0,0,0-4-.1c-2.58.16-5.14.44-7.71.7-1.92.2-2.29.74-1.93,2.64a8.51,8.51,0,0,1,.07,1.24,6.67,6.67,0,0,0,1.7.22c4.38-.58,8.75-1.23,13.14-1.81,1.5-.2,3-.25,4.54-.37l1.36.13S202.35,92.1,202.36,92.05Z"
     id="path1291" />
  <path
     class="0fbc04c4-e69f-43fd-aa13-b6c199ea88b3"
     d="M182.57,87.9a23,23,0,0,1,8.23-.35c4.65.78,9.22,1.71,13.46,3.87,1.28.65,2.41,1.41,2.73,2.88.71,3.27,2.81,5,6,5.73a21.6,21.6,0,0,1,7.47,3.46,4.56,4.56,0,0,1,1.18,1.79c.4.81.61,1.72,1.05,2.51.94,1.65,2.69,2.21,4.29,2.95,1.78.84,3.55,1.73,5.36,2.51,1.66.72,3.37,1.32,5,2a4.34,4.34,0,0,1,.87.57c-6-1.28-11.7-3.63-17.44-5.77a6.87,6.87,0,0,1-1.81-1.42.77.77,0,0,1-.18-.63,4.38,4.38,0,0,0-2.38-4.77c-3.14-1.38-6.31-2.69-9.49-4a3.55,3.55,0,0,1-2.14-1.83A17.74,17.74,0,0,0,201,92.17l1.36.13.3,0-.27-.19c-1.4-.64-2.77-1.36-4.21-1.89a12.2,12.2,0,0,0-3-.62,25.3,25.3,0,0,0-4-.1c-2.57.17-5.14.44-7.7.7-1.31.14-1.9.43-2,1.21a21.87,21.87,0,0,1-.85-3.55C180.88,88.22,181.34,88.14,182.57,87.9Z"
     id="path1293" />
  <path
     class="f87b461e-c82c-4e08-9f61-a927f69d4a52"
     d="M223.45,109.5c1.78.85,3.55,1.73,5.36,2.52,1.66.72,3.37,1.32,5.05,2a5.42,5.42,0,0,1,.87.57h0a22.76,22.76,0,0,1,3,.25c1.37.3,2.7.76,4,1.17a15.29,15.29,0,0,0,2.12.67,20.85,20.85,0,0,0,2.74.07l.18-.1h0l.32.05h0l3.88-.36c2.62-.24,5.3-.2,7.72-1.48a8.83,8.83,0,0,0,1.1-2.52,2,2,0,0,1,.84-1.77v0c-.31-1.6-2-1.61-2.89-2.61-1.32.65-2.55-.32-3.83-.21-1.69.15-3.38.38-5.07.44a18.61,18.61,0,0,1-2.85-.34,4.24,4.24,0,0,0-3.23.61c-.14.56-.29,1.12-.38,1.49l-2.34-.19c-.06,0-.11.11-.18.12-2.15.47-4.06,1.83-6.36,1.75a6.48,6.48,0,0,1-1.32-.36c-2.2-.63-4.39-1.31-6.62-1.86A7.27,7.27,0,0,0,223.45,109.5Z"
     id="path1295" />
  <path
     class="0fbc04c4-e69f-43fd-aa13-b6c199ea88b3"
     d="M246.61,116.73a20.85,20.85,0,0,1-2.74-.07,15.29,15.29,0,0,1-2.12-.67c-1.34-.41-2.67-.87-4-1.17a22.76,22.76,0,0,0-3-.25c2.66,1.62,5.25,3.41,8.41,3.9,3.32.51,6.61,1.33,10,1,1.51-.14,3-.37,4.5-.55a.39.39,0,0,0,.2-.06c1.37-1.2,3.24-2.06,3.17-4.27-.05-1.36-.26-2.71-.4-4.06a2,2,0,0,0-.84,1.77,8.83,8.83,0,0,1-1.1,2.52,6.08,6.08,0,0,1-4,2.25,30,30,0,0,1-3.9.17,35.81,35.81,0,0,1-3.69-.58h0l-.32-.05h0Z"
     id="path1297" />
  <path
     class="0fbc04c4-e69f-43fd-aa13-b6c199ea88b3"
     d="M246,107.85a18.61,18.61,0,0,0,2.85.34c1.69-.06,3.38-.29,5.07-.44,1.28-.11,2.51.86,3.83.21.85,1,2.58,1,2.89,2.61a17,17,0,0,0-.33-2.16c-.06-.25-.47-.45-.76-.58-2.62-1.23-5.34-1-8.1-.55C249.6,107.59,247.77,107.67,246,107.85Z"
     id="path1299" />
  <path
     class="0fbc04c4-e69f-43fd-aa13-b6c199ea88b3"
     d="M240,109.76l2.34.19c.09-.37.24-.93.38-1.49A3.93,3.93,0,0,0,240,109.76Z"
     id="path1301" />
  <path
     class="879ca6a0-e46e-46e7-9705-41e59a64984f"
     d="M247.06,116.68a35.81,35.81,0,0,0,3.69.58,30,30,0,0,0,3.9-.17,6.08,6.08,0,0,0,4-2.25c-2.42,1.28-5.1,1.24-7.72,1.48Z"
     id="path1303" />
  <path
     class="879ca6a0-e46e-46e7-9705-41e59a64984f"
     d="M246.61,116.73l.18-.1Z"
     id="path1305" />
  <path
     class="879ca6a0-e46e-46e7-9705-41e59a64984f"
     d="M246.76,116.63l.32.05Z"
     id="path1307" />
  <path
     class="0fbc04c4-e69f-43fd-aa13-b6c199ea88b3"
     d="M234.51,144.44c-1.13-5-2.24-10-4.66-14.57a58,58,0,0,0-10-13.09c-1.38-1.44-3.24-2.4-4.79-3.69-4-3.35-8.94-5-13.66-7a24.71,24.71,0,0,0-5-1.49c-4.31-.77-8.66-1.36-13-2.09a28.94,28.94,0,0,1-3.31-1c1.6-3.27,1.54-3.27,1.82-8.25a11.42,11.42,0,0,0-1.58-6.58c-3.12-5.11-7.32-9-13.37-10.7a19.39,19.39,0,0,0-7.73-.77,12.65,12.65,0,0,0-3.76,1,28.36,28.36,0,0,0-3.66,2.47,12,12,0,0,0-5-4.06c-1.21-.51-2.41-1-3.65-1.48a36.77,36.77,0,0,0-6.7-2.15,57.24,57.24,0,0,0-8.89-.29,13.89,13.89,0,0,0-4.3.71A25.66,25.66,0,0,0,117.81,74,25.12,25.12,0,0,0,114,77.62c-4.18,4.25-7,9.41-9.54,14.71a6,6,0,0,0-.55,2.33c-.07,1.5,0,3,0,4.51,0,3.57-.08,7.16,1.91,10.38l-1.65.21a66.8,66.8,0,0,1-7.15.89c-4.15.09-4.77.35-6.56-3.15-.16-.3-.24-.66-.42-1-.45-.75-.24-1.23.44-1.74A11.05,11.05,0,0,0,92,103.22l-.32-.37-2.28,1.05a7.07,7.07,0,0,1,.3-2.46c.32-.59,1.13-.91,1.7-1.33a1.62,1.62,0,0,0-2.1.9,20.56,20.56,0,0,0-.88,2.72c-.09.3-.11.78-.31.88-2.59,1.28-5,3-8,3.38-3.58.44-5.5-.91-6-4.47,0-.27-.09-.53-.12-.8a17,17,0,0,1,2.71-12.55,29.56,29.56,0,0,1,5.4-5.61A10.56,10.56,0,0,1,90.4,82c.07-.09.14-.17.2-.26a6.3,6.3,0,0,0-4.41-.16c-3.07.93-5.25,3.09-7.44,5.25a19.69,19.69,0,0,0-6.4,14.61,7.54,7.54,0,0,0,3.12,6.65,7.74,7.74,0,0,0,9.12.43c1.32-.78,2.68-1.47,4-2.2,2.16,5.24,5.52,6.53,10.47,6,2.4-.27,4.77-.75,7.18-1.16l-.1-.11.1.11.49-.08a3.85,3.85,0,0,1,.42,1.19,22,22,0,0,1,2,3.47,4.6,4.6,0,0,1,1,1.22,9.5,9.5,0,0,0,.88,1,11.21,11.21,0,0,0,4.59,4.06c1.31.59,1.29,2,.12,2.82-.34.25-.77.39-1.08.67-2.85,2.53-5.8,5-8.46,7.66a27.86,27.86,0,0,0-4.73,6.15,22.68,22.68,0,0,0-2.57,11.26,8.71,8.71,0,0,0,1.23,5.12,42.77,42.77,0,0,1,2.59,4.26c1.27,2.39,2.13,5.07,3.71,7.23,3.58,4.92,7.3,9.76,11.34,14.31,2.07,2.34,4.92,4,7.47,5.9a25.74,25.74,0,0,0,4.11,2.62c4.4,2.12,8.9,1.92,13.54.67,3.36-.91,5.93-2.53,7.4-5.76.43-1,1.29-1.09,2.3-.68,2.66,1.08,5.28,2.31,8,3.12,4.87,1.44,9.92,1.39,15,1.47,7.89.14,15.52-1.56,23.23-2.72a5.44,5.44,0,0,0,.78-.25c2-.58,4-1.14,5.91-1.74a27.16,27.16,0,0,0,4.31-1.41,105.52,105.52,0,0,0,13.37-8.24,24.06,24.06,0,0,0,5.57-6.19,31.47,31.47,0,0,0,5.3-10.76c1-4.34.24-8.65.51-13A.45.45,0,0,0,234.51,144.44ZM114.67,118.12c-3-1.8-3.86-5-5.2-7.78a32.83,32.83,0,0,1-2.57-7.57c-.77-3.79.11-7.56.89-11.29a11.75,11.75,0,0,1,2.19-4.4c.2-.29.9-.68,0-1.07a1.16,1.16,0,0,1,.16-.56,81.86,81.86,0,0,1,5.92-7.76c1.35-1.42,3.44-2.16,5.2-3.2.17-.1.37-.13.54-.21,5.25-2.44,10.67-2.09,16.2-1.22,4.34.69,8.05,2.71,11.76,4.81a6.76,6.76,0,0,1,1.64,1.76c2.08,2.54,4.14,5.11,6.35,7.84a4,4,0,0,0-.32-1.13q-1.69-2.28-3.47-4.5c-1.65-2-2.08-2.66.56-3.66a17.13,17.13,0,0,1,12.21-.34c.62.22,1.28.32,1.91.49A15.48,15.48,0,0,1,178.55,86a16,16,0,0,1,2,8.73c-.06.81.07,1.64,0,2.45-.17,1.47-.43,2.93-.66,4.47-6.61-.72-12.86-.15-19.2.57l.19-1a4.13,4.13,0,0,0-.36-3.23c-.63-1-.39-2.57-.63-3.86a9.13,9.13,0,0,0-.69-1.74l-.27.13c.22,1.72.5,3.44.62,5.17a3.28,3.28,0,0,1-1,3.12c-.44.36-.31,1.35-.56,2a43.21,43.21,0,0,1-2.24,5.38,32,32,0,0,1-3,4.09c-.74,1-1.56,1.84-2.3,2.79A11.62,11.62,0,0,1,145,118.6c-3.4,1.29-6.82,2.52-10.29,3.6a17.16,17.16,0,0,1-4.59.61,31.66,31.66,0,0,1-5.68-.24,22,22,0,0,1-5.63-1.52C117.31,120.37,116.12,119,114.67,118.12Zm118.11,26.77a56.83,56.83,0,0,1,.08,12,13.92,13.92,0,0,1-2,6.11c-.21.39-.42.78-.62,1.18l-.17.27a47.65,47.65,0,0,1-4.43,5.93,51.79,51.79,0,0,1-6.5,5,37.3,37.3,0,0,1-5.29,3.38,78.82,78.82,0,0,1-8.75,3.66,66.42,66.42,0,0,1-7.54,1.87,69.1,69.1,0,0,1-7.53,1.36c-5,.5-10.09.82-15.15,1.15-1.41.1-2.85,0-4.27-.05A40.1,40.1,0,0,1,159,185.42a8.69,8.69,0,0,1-1.26-.54h0l-.31-.16c-2.17-.89-4.35-1.76-6.51-2.69,0,0,0,0,0,0-1.11,2.49-3.34,3.47-5.6,4.23a3.34,3.34,0,0,1-2.07-.24,7.33,7.33,0,0,1-4.24,1.49,28.43,28.43,0,0,1-13.29-3.73c-2.31-1.33-4.17-3.45-6.23-5.21l-.14-.21.27,0,1.72.47.13-.3a3.65,3.65,0,0,0-.9-.5,7.71,7.71,0,0,1-4.39-2.79,46.44,46.44,0,0,1-5.79-7.86c-2.3-3.18-3.51-6.88-5.08-10.42-.65-1.49-1.44-2.92-2.07-4.41a8.28,8.28,0,0,1-.68-5.5c.43-1.61.6-3.28,1-4.89.64-2.62,2.63-4.46,4-6.64.34-.54,1-.93,1.2-1.49.4-1,1.42-1.09,2.1-1.67h0l.86-1.25c2.6-1.38,5.19-2.77,7.8-4.13a16.16,16.16,0,0,1,3.21-1.51,13.48,13.48,0,0,1,4.56-.63c4,.37,7.71-.61,11.49-1.61a36.62,36.62,0,0,0,6.95-2.84c.88-.43,1.77-.82,2.63-1.29A8.4,8.4,0,0,0,150,118c.77-.7,1.41-1.53,2.18-2.22a12.16,12.16,0,0,1,1.71-1.1c1.56-2.68,3.16-5.35,4.66-8.07.55-1,1.46-.61,2.16-.72,3.4-.5,6.83-.94,10.26-1.2,2.52-.2,5.07-.09,7.61-.11a104.66,104.66,0,0,1,18.15,2,45.83,45.83,0,0,1,16.44,6.52,35.53,35.53,0,0,1,9.93,8.53c2.26,3,4.57,5.91,6,9.4A52.14,52.14,0,0,1,232.78,144.89Z"
     id="path1309" />
  <path
     class="879ca6a0-e46e-46e7-9705-41e59a64984f"
     d="M178.55,86a15.48,15.48,0,0,0-9.87-7.63c-.63-.17-1.29-.27-1.91-.49a17.13,17.13,0,0,0-12.21.34c-2.64,1-2.21,1.61-.56,3.66q1.77,2.22,3.47,4.5a4,4,0,0,1,.32,1.13c-2.21-2.73-4.27-5.3-6.35-7.84a6.76,6.76,0,0,0-1.64-1.76c-3.71-2.1-7.42-4.12-11.76-4.81-5.53-.87-10.95-1.22-16.2,1.22-.17.08-.37.11-.54.21-1.76,1-3.85,1.78-5.2,3.2a81.86,81.86,0,0,0-5.92,7.76A1.16,1.16,0,0,0,110,86c.86.39.16.78,0,1.07a11.75,11.75,0,0,0-2.19,4.4c-.78,3.73-1.66,7.5-.89,11.29a32.83,32.83,0,0,0,2.57,7.57c1.34,2.81,2.25,6,5.2,7.78,1.45.88,2.64,2.25,4.16,2.93a22,22,0,0,0,5.63,1.52,31.66,31.66,0,0,0,5.68.24,17.16,17.16,0,0,0,4.59-.61c3.47-1.08,6.89-2.31,10.29-3.6a11.62,11.62,0,0,0,5.36-3.59c.74-1,1.56-1.84,2.3-2.79a32,32,0,0,0,3-4.09,43.21,43.21,0,0,0,2.24-5.38c.25-.65.12-1.64.56-2a3.28,3.28,0,0,0,1-3.12c-.12-1.73-.4-3.45-.62-5.17l.27-.13a9.13,9.13,0,0,1,.69,1.74c.24,1.29,0,2.84.63,3.86a4.13,4.13,0,0,1,.36,3.23l-.19,1c6.34-.72,12.59-1.29,19.2-.57.23-1.54.49-3,.66-4.47.08-.81-.05-1.64,0-2.45A16,16,0,0,0,178.55,86Z"
     id="path1311" />
  <path
     class="f116c2d5-61d1-4f5a-b301-d41399e01dfa"
     d="M145.71,120.4a3.54,3.54,0,0,0,3.15.61,2.17,2.17,0,0,1,1.56.17c.24.16,0,.91.11,1.38a3.55,3.55,0,0,0,.32,1.21,1.35,1.35,0,0,1-.62,2c-1.4.82-2.76,1.72-4.23,2.41-3.42,1.6-6.86,3.16-10.35,4.63a35.63,35.63,0,0,1-10.6,2.38c-1.62.14-3.23.38-4.83.62-.32,0-.59.38-.91.49a12.65,12.65,0,0,1-3.71,1.09c-.8,0-1.62-1-2.39-1.55a4.75,4.75,0,0,1-1.06-1.13c-.49-.76-.89-1.57-1.33-2.36h0c.29-.41.57-.83.86-1.25,2.6-1.38,5.19-2.77,7.8-4.13a16.43,16.43,0,0,1,3.21-1.51,13.77,13.77,0,0,1,4.56-.63c4,.37,7.72-.61,11.49-1.61A36.62,36.62,0,0,0,145.71,120.4Z"
     id="path1313" />
  <path
     class="f116c2d5-61d1-4f5a-b301-d41399e01dfa"
     d="M178.59,104.54c-.92.35-1.84.7-2.76,1.07a9.72,9.72,0,0,0-.88.51,1.45,1.45,0,0,1,.54,2.14,2.38,2.38,0,0,0,.31,1.63.92.92,0,0,1-.6,1.46c-2.43.86-4.83,1.81-7.32,2.5a84.31,84.31,0,0,1-8.75,1.94c-1.8.3-3.77.51-5.23-1.15,1.56-2.68,3.17-5.35,4.66-8.07.55-1,1.46-.61,2.16-.72,3.41-.5,6.83-.94,10.26-1.2C173.51,104.45,176.05,104.56,178.59,104.54Z"
     id="path1315" />
  <path
     class="5f4cdcab-257d-46e3-9af3-8d19919e15ae"
     d="M111.71,131.17c-.29.42-.57.84-.86,1.25Z"
     id="path1317" />
  <path
     class="f87b461e-c82c-4e08-9f61-a927f69d4a52"
     d="M93.06,132l-.2.26.06-.36Z"
     id="path1319" />
  <path
     class="f116c2d5-61d1-4f5a-b301-d41399e01dfa"
     d="M228.6,157.55a41.48,41.48,0,0,0-4.5,1.47c-.95.36-1.81.83-2.86.29a1.56,1.56,0,0,0-1.1.06,13.52,13.52,0,0,1-3.26,1.11c-2.11.11-3.82,1.11-5.66,1.9a48.28,48.28,0,0,1-5.8,2.36c-4.26,1.18-8.35,2.88-12.82,3.4-3.85.45-7.6,1.7-11.44,2.19a98.77,98.77,0,0,1-13.08.89,25.74,25.74,0,0,1-8.87-1.43c-3.17-1.22-6.05-3.27-8.93-5.15-1.54-1-2.71-2.58-4.24-3.59a31.67,31.67,0,0,1-7.11-5.84c-.52-.76-1.06-1.53-1.62-2.28a9.2,9.2,0,0,0-1.87-2.37,41,41,0,0,0-4.48-4.63,11.94,11.94,0,0,0-8.56-3.15,1.53,1.53,0,0,1-.37-.31c-.09-.11-.57.09-.85.2s-.45.39-.57.34a1.87,1.87,0,0,0-2.28.53,8.37,8.37,0,0,0-1.63.67c-3.36,1.87-5.12,5.55-6.19,9.1a21.85,21.85,0,0,0-.46,12.15,17.71,17.71,0,0,0,.6,1.78,2.11,2.11,0,0,1-.3.16,46.44,46.44,0,0,0,5.79,7.86c.24.28.48.54.73.78a16.59,16.59,0,0,0,1.24,1.74,13.67,13.67,0,0,0,4.52,3.68,18.4,18.4,0,0,0,3.06,2.32A28.51,28.51,0,0,0,139,187.5a5.75,5.75,0,0,0,2.38-.47c3.92-.35,7.69-1.54,9.88-4.91,2,.87,4.11,1.69,6.17,2.54l.3.16H158a19.19,19.19,0,0,0,3,1.36,17.27,17.27,0,0,0,5.67.77,28.89,28.89,0,0,0,3.71-.33l.22.06c1.43,0,2.86.15,4.28.05,5-.33,10.11-.65,15.15-1.15a68.93,68.93,0,0,0,7.52-1.36,64,64,0,0,0,7.55-1.87,78.67,78.67,0,0,0,8.74-3.66,38,38,0,0,0,5.3-3.38,52.42,52.42,0,0,0,6.49-5.05,47.71,47.71,0,0,0,4.44-5.93l.16-.27.62-1.18c.11-1,.23-2.06.31-3.09A2.11,2.11,0,0,0,228.6,157.55Z"
     id="path1321" />
  <path
     class="0fbc04c4-e69f-43fd-aa13-b6c199ea88b3"
     d="M133.59,98.72c.2-1.28.32-2.22.51-3.15a.94.94,0,0,1,1.57-.55c1.33,1.36,2.82,2.75,2.93,4.81a2.62,2.62,0,0,1-.87,2.1,2,2,0,0,1-2.66-.52A20.26,20.26,0,0,1,133.59,98.72Z"
     id="path1323" />
  <path
     class="0fbc04c4-e69f-43fd-aa13-b6c199ea88b3"
     d="M162.28,93.81a18,18,0,0,1-1,2.34c-.11.18-.8.19-1.1,0A4.47,4.47,0,0,1,158,91.67a1.37,1.37,0,0,1,.67-1,1.28,1.28,0,0,1,1.1.35C160.63,91.89,161.41,92.83,162.28,93.81Z"
     id="path1325" />
  <path
     class="0fbc04c4-e69f-43fd-aa13-b6c199ea88b3"
     d="M174.15,67.24c1.81-1.13,2.61-1.08,3.73.62,1.52,2.32,3.12,4.61,3.85,7.36.23.85.63,1.65.91,2.49.94,2.84.67,4.22-2.09,6.78a13.4,13.4,0,0,1-.48-1.37c-.37-1.7-.71-3.4-1-5.1-.51-2.61-2.18-4.51-3.9-6.35a2.8,2.8,0,0,1-.75-3.44C174.46,68,174.25,67.63,174.15,67.24Z"
     id="path1327" />
  <path
     class="0fbc04c4-e69f-43fd-aa13-b6c199ea88b3"
     d="M99.58,84.46c.76-2.57,2.13-5.42,2-5.5a38.77,38.77,0,0,1,2.48-4.69c1.77-3,3.71-5.82,5.54-8.75a19.61,19.61,0,0,1,2.33-2.24c.41-.57-.62-2.93-1-3.23-2.16-1.95-2.71-1.87-4.58.15-4.12,4.42-5.62,10.23-7.2,16-.66,2.38-1.12,6.3-.18,9.13"
     id="path1329" />
  <path
     class="0fbc04c4-e69f-43fd-aa13-b6c199ea88b3"
     d="M148.78,66.24a11,11,0,0,0-1.73-1.88c-3.81-3.27-8.57-3.81-13.26-4.44-4.54-.6-9,.32-13.34,1.45-2,.53-4.08,1.15-6.12,1.73-.11-.06-5.86,2.87-6.44,3.19-2.9,1.58-5.43,3.86-8.09,5.87A26,26,0,0,0,94,77.72c-.9,1.25-2,2.37-3,3.54-.19-.14-.53-.08-.39-.06-1.76,3-3.51,5.9-5.24,8.83-.35.61-.86,1.25-.4,2,.41-.87.77-1.7,1.2-2.49s1.08-1.63,1.47-2.51c1.88-4.29,5.25-7.48,8.44-10.62s7.32-5.71,11.07-8.47a11.38,11.38,0,0,1,1.94-1s4.94-2.35,5.8-2.47a26.51,26.51,0,0,0,2.63-.92c7.14-1.92,14.33-3.22,21.72-1.51a28.23,28.23,0,0,1,4.48,1.23c2.54,1,4.5,2.71,4.68,5.87A2,2,0,0,0,148.78,66.24Z"
     id="path1331" />
  <path
     class="0fbc04c4-e69f-43fd-aa13-b6c199ea88b3"
     d="M149.15,181.56a13.76,13.76,0,0,1-2.2-1c-1.88-1.36-3.7-2.81-5.55-4.22-1.69-1.17-3.43-2.2-4.31-4.3s-2.12-4-3.19-6a2.94,2.94,0,0,1-.16-.58,22.2,22.2,0,0,1-3-12.22c.08-2.87,1.64-4.91,3.86-6.53.9-.29,1.79-.59,2.7-.86s1.58-.41,2.35-.61c-.35-2.34-.92-2.72-2.84-2.08-1.14.38-2.26.8-3.47,1.22-.33-.64-.72-.56-1.33-.07-1,.81-2.12,1.45-3.19,2.16L124,150.8l-3,2.75c3.35-.39,4.73.45,5.74,3.43.38,1.13.52,2.34.83,3.5a6.42,6.42,0,0,0,.6,1.4c1.63,3.1,3.11,6.29,5,9.24A24.55,24.55,0,0,0,139,178c1,.73,1.3,2.35,1.87,3.59.37.8.56,1.68,1,2.46s.27,1-.54,1.27l1.24,1.23h0a3.43,3.43,0,0,0,2.11.44c2.4-.56,4.8-1.37,6.17-3.84l0-.05-.62-.33C149.71,182.49,149.45,181.93,149.15,181.56Z"
     id="path1333" />
</svg>
