<svg xmlns="http://www.w3.org/2000/svg" xmlns:xlink="http://www.w3.org/1999/xlink" viewBox="0 0 159.21 184.23"><defs><style>.a{fill:#fff;}.b{fill:#272726;}.c{fill:#1e1e1d;}.d{fill:#e1e1df;}.e{fill:#373736;}.f{fill:#3c3e3c;}.g{fill:#343534;}.h{fill:#212121;}.i{fill:#595a59;}.j{fill:#2c2c2b;}.k{fill:#b2b3b2;}.l{fill:#7a7b7a;}.m{fill:#ececea;}.n{fill:#dedfde;}.o{fill:#bdbebd;}.p{fill:#a7a9a7;}.q{fill:#2f2f2e;}.r{fill:#bcbcba;}.s{fill:#191919;}.t{fill:url(#a);}.u{fill:#9f9f9e;}.v{fill:url(#b);}</style><radialGradient id="a" cx="-46.03" cy="199.77" r="1.48" gradientTransform="matrix(4.96, 0, 0, -5.04, 316.05, 1045.65)" gradientUnits="userSpaceOnUse"><stop offset="0" stop-color="#191919"/><stop offset="1" stop-color="#fff"/></radialGradient><radialGradient id="b" cx="-39.8" cy="193.97" r="1.48" gradientTransform="matrix(3.6, 0, 0, -3.66, 191.03, 749.62)" xlink:href="#a"/></defs><title>panda-index</title><path class="a" d="M159.14,162.19v-.11c0-.26-.06-.52-.09-.77l0-.12c0-.25-.07-.5-.11-.74v-.06c0-.26-.09-.51-.14-.74v0c0-.23-.1-.44-.16-.66l0-.16c0-.15-.09-.3-.13-.43l-.07-.2c-.05-.15-.11-.29-.16-.41l-.08-.19a4.37,4.37,0,0,0-.37-.64,5.54,5.54,0,0,0-5-2.11h-.46c-1.32-1.25-3.05-3-4.88-4.8-6.41-6.39-10.18-10-12.74-11.77q.64-1.23,1.26-2.52l.21-.43c.47-1,.86-1.81,1.23-2.61a8.3,8.3,0,0,0,.53-3.3,5.71,5.71,0,0,0,0-.81,123.77,123.77,0,0,0-10.75-43.84,42.81,42.81,0,0,0,13.67-20.11c1.88-6.3-3.09-19.22-12.11-26.4a53.12,53.12,0,0,0-6-14.12c2.4-1.09,5.38-2.71,6.4-4.28,1.37-2.09,1-8.37.2-12-.77-3.3-2.09-5.5-3.92-6.56a6.54,6.54,0,0,0-3.3-.83c-4.89,0-11,4.46-12.51,6.16a5.38,5.38,0,0,0-.35.44,9.6,9.6,0,0,0-1.6,4.41A81.52,81.52,0,0,0,79.46,6.27a66.24,66.24,0,0,0-26.69,5.41,7.28,7.28,0,0,0-1.55-3.3C50,7,44.82,3.22,40.69,3.22A5.79,5.79,0,0,0,37.76,4a5,5,0,0,0-.75.54l-.17.15a5.86,5.86,0,0,0-.58.62l-.1.13c-.13.17-.27.36-.4.58l-.09.14c-.13.21-.25.44-.37.68l-.07.15c-.09.19-.18.4-.26.62l-.05.14c-.09.23-.17.47-.25.72l0,.16c-.07.23-.14.47-.2.7l0,.07c-.07.26-.12.52-.18.79v.12c-.45,2.23-.94,7.49.37,9.49.86,1.32,3.19,2.62,5.13,3.52-.65,1.42-1.29,3-2,4.6-1.51,3.65-3.22,7.79-4.84,9.62a2.68,2.68,0,0,0-.56,1,43.06,43.06,0,0,1-3.88,5.61c-2.78,3.7-5.66,7.52-6.7,10.45-1.91,5.41.72,20.61,15.08,34.13C30.75,94.12,20.31,107,19.53,124.92c-.1,2.3,1.55,7.78,3.35,12.56A186.15,186.15,0,0,0,7,151H7a8.32,8.32,0,0,0-1.73-.22,4.27,4.27,0,0,0-3.61,1.83,4.33,4.33,0,0,0-.32.52l-.07.14c-.05.11-.11.24-.16.37h0l0,.1c-.05.14-.1.29-.16.48l0,.08-.11.39,0,.17-.1.42,0,.1c0,.17-.07.35-.1.52l0,.21-.07.4,0,.22c0,.16,0,.32-.07.51l0,.29c0,.14,0,.27,0,.42l0,.31c0,.12,0,.25,0,.37s0,.23,0,.33,0,.41,0,.61l0,.71c0,.15,0,.29,0,.45V161c0,.28,0,.57,0,.87v.24c0,.16,0,.33,0,.49v.28c0,.18,0,.35,0,.5v.13c0,.37.06.74.1,1.1l0,.26c0,.18,0,.37.07.55l0,.24c.09.61.19,1.22.32,1.87l0,.22c0,.19.08.38.12.56l.06.23c0,.2.1.41.15.61,1.13,5.16,3.61,8.76,7.37,10.73l.27.12a8.08,8.08,0,0,0,5.82-.19,21.6,21.6,0,0,0,5.48-3.05c1.87-.65,11.42-1.34,32.74-1.34h6.53A32.23,32.23,0,0,0,68.24,178a32.44,32.44,0,0,0,10.87.24,61.43,61.43,0,0,0,14.69-2.78c2.45-.22,5.09-.34,7.85-.34,18.15,0,35.6,4.61,37.5,5.85,3.49,2.56,6.29,3.76,8.83,3.76a6.69,6.69,0,0,0,4.2-1.4c.35-.27.69-.57,1.08-.93l.28-.27c.28-.28.55-.57.81-.88l.15-.17c.29-.35.57-.72.84-1.1l.13-.19,0,0c.22-.33.43-.67.63-1l0,0,.1-.18a20.34,20.34,0,0,0,1.21-2.58l0-.12a25.24,25.24,0,0,0,1.07-3.64v0c.08-.38.15-.76.22-1.13l0-.09a32.85,32.85,0,0,0,.45-4.64v0a32.88,32.88,0,0,0-.14-4.05" transform="translate(-0.08 -0.51)"/><path class="b" d="M37.53,131.56c-2-.93-23.66,16.27-29.15,22.17-1,1.09-3.34-1-4.6.74S1,171.06,8.8,177.12c2.85,2.2,7.05-.32,9.87-2.39s39.7-1.7,41.73-1.7-7.83-34.29-22.88-41.47" transform="translate(-0.08 -0.51)"/><path class="c" d="M4.73,157.83c1.25-1.75,3.58.34,4.6-.74,5.48-5.9,29.38-17.52,31.34-16.59,9.25,4.41,15.72,17,18.85,26-2.91-10.32-11.09-29.72-22-34.92-2-.93-23.66,16.27-29.15,22.17-1,1.09-3.34-1-4.6.74-.94,1.32-2,9.42.47,16.09-1.18-5.79-.32-11.64.47-12.74" transform="translate(-0.08 -0.51)"/><path class="c" d="M3.26,167.86c1.15,6.33,4.13,8.67,6.16,9.73,3.6,1.38,7.94-2.71,9.39-3.23,4.87-1.85,39.36-1.5,41.33-1.5.88,0-.46-6.36-3.46-14.17-4.29.5-21.77-10.2-21.3-5.45,1.57,15.95-17.2,11.89-19,15.39-2.08,4.14-6.89,9.81-13.16-.77" transform="translate(-0.08 -0.51)"/><path class="b" d="M130.67,139.66c2-.93,14.41,12.47,19.83,17.54,1.09,1,3.52-.32,4.77,1.44s2.82,16.59-5,22.65c-2.85,2.2-7.05-.32-9.87-2.39s-27.62-7.89-47.47-6c-2,.2,22.71-26.08,37.75-33.25" transform="translate(-0.08 -0.51)"/><path class="c" d="M133.19,147.8c6.27,2.55,12.33,9.54,16,12.93,1.29,1.21,4.19-.38,5.68,1.71.67.93,1.38,4.7,1.24,9.26,1.28-5.89.4-11.94-.41-13.06-1.25-1.75-3.68-.42-4.77-1.44-5.42-5.07-17.87-18.48-19.83-17.54-.86.41-9.8,10.31-10.72,10.84,6-3.83,10.13-3.82,12.85-2.71" transform="translate(-0.08 -0.51)"/><path class="a" d="M42.61,90c-.94,1.12-5.8,10.53-6.11,24.4-.07,3-16,27.27,8.46,50.4C52.79,168.67,61.72,175,70,175.36s43.88,2.87,65-43.86c1.54-3.41-3.29-33.81-12.07-46.89C75.72,114,42.61,90,42.61,90" transform="translate(-0.08 -0.51)"/><path class="c" d="M150.77,181.31a15.65,15.65,0,0,0,5.23-8.77c-6.34,8.13-9.42,5.87-13.13-.24-4-4.28-28.52-6.46-22.25-16.51-7.84,2.39-17.86,10.41-22.67,11.3l0,0-1.08,1.18-.07.08-1,1.1h0c-.62.71-1.13,1.33-1.53,1.84l0,0c-.17.22-.31.42-.44.6l-.09.14c-.09.13-.16.24-.21.35l-.06.12a.74.74,0,0,0-.07.2.34.34,0,0,0,0,.07c0,.06,0,.09.11.08,19.85-1.91,44.65,3.91,47.47,6s7,4.6,9.87,2.39" transform="translate(-0.08 -0.51)"/><path class="d" d="M53.37,147.73C57,127.51,41.25,113.18,40.1,112.12H36.59c0,.74-.08,1.5-.1,2.27-.07,3-16,27.27,8.46,50.4,4.7,2.3,9.8,5.51,14.93,7.78,15.94,6.57,25.79,1.24,24.72-.13-19.12,4.47-30.91-6.7-30-7.71,3.13-3.4,4.81-13.61-1.25-17" transform="translate(-0.08 -0.51)"/><path class="e" d="M153.86,164.66c1.09.79,1.61,5.89-.2,8.56-2.81,4.17-4.24,2.54-4.18.56.1-3.77,2.15-10.73,4.38-9.12" transform="translate(-0.08 -0.51)"/><path class="e" d="M5.31,160.88c-1.09.79-1.61,5.89.2,8.56,2.81,4.17,4.24,2.54,4.18.56-.1-3.77-2.15-10.73-4.38-9.12" transform="translate(-0.08 -0.51)"/><path class="d" d="M134.75,131.51c1.54-3.41-3.29-33.81-12.07-46.89a96.51,96.51,0,0,1-32,13.12c.85,4.09,2,8.25,2,8.25,2.19,1.44,8.24,9.09,10.18,17.22,2.82,11.8-18.55,29.14-13.48,40.19,3,6.49-9.87,11.27-14.68,12.23,24.86-.11,46.69-14.8,60-44.12" transform="translate(-0.08 -0.51)"/><path class="f" d="M36.75,115.66c7.52-9.09,44.19-20.1,74.9-.64,4.19,2.65,14.25,6.16,22.21,6.89-1.33-10.92-5.2-28.84-11.24-37.83C76.39,113,47.56,92.32,47.56,92.32c-.94,1.12-11.13,8.51-11.44,22.38,0,.22,0,.66,0,1.26l.64-.3" transform="translate(-0.08 -0.51)"/><path class="g" d="M123.47,83.54c1.41,1.44,11,22.65,11.91,45.29.19,4.69-13.53,28.23-30.61,33.81A9,9,0,0,1,94,158.18c-.75-1.51,2.82-6.86,5.8-7.18,1-6,4.81-17.7,13.16-23.44-.42-13.4-13.74-32.06-13.74-32.69s6-1.44,13.32-5.42c4.23-.8,11-5.9,11-5.9" transform="translate(-0.08 -0.51)"/><path class="b" d="M123.15,83.54s-8.12,4.15-9.92,5.32c9.77,1.54,18.54,29,17.13,40-.58,4.55-7.36,25.12-25.91,33.81,17.08-5.58,30.8-29.12,30.61-33.81-.94-22.65-10.5-43.86-11.91-45.29" transform="translate(-0.08 -0.51)"/><path class="g" d="M47.41,92.52c1.34-6.82-5.85-4.15-5.85-4.15C38.74,90,23.28,103.52,22.34,124.89c-.16,3.67,8.15,29.66,21,39.23,2.77,2.07,4.94,1.12,8-1.67,2.46-2.25,1.41-7.58-.31-9s-3-1.28-4.07-1.59,6.89-23.6-9.71-36.52c-.16-4.15,0-6.54.78-8.88a54.9,54.9,0,0,1,9.4-13.93" transform="translate(-0.08 -0.51)"/><path class="g" d="M52.43,157.36a6.36,6.36,0,0,0-1.67-3.78A7.32,7.32,0,0,0,46.83,152c-3.12.5-7.3,5.39-3.16,12.61a3.31,3.31,0,0,0,2.1.69,4.74,4.74,0,0,0,1.52.62c.82.16,1.46-.64,1.78-1.59a4.52,4.52,0,0,0,1,.36c1.35.27,2.22-2.11,1.93-3.37a4.63,4.63,0,0,0,1.07-.55c1-.71.26-2.55-.67-3.44" transform="translate(-0.08 -0.51)"/><path class="b" d="M25.16,125.07C26.78,106.57,35.8,95.91,42.55,90c.31-.48-1-1.59-1-1.59C38.74,90,23.28,103.54,22.34,124.92c-.16,3.67,8.15,29.66,21,39.23a4.15,4.15,0,0,0,1.16.68c-14-10.3-19.63-36.4-19.33-39.75" transform="translate(-0.08 -0.51)"/><path class="g" d="M49.88,16.66c.51-2.33.26-5.19-.89-6.48S41.73,4.6,38.8,6.29,35.74,17,36.51,18.21s5.22,3.24,6.62,3.63c1.78-1.94,3.57-4.41,6.75-5.19" transform="translate(-0.08 -0.51)"/><path class="h" d="M49,10.17C47.84,8.88,41.73,4.6,38.8,6.29c-2.28,1.31-2.86,7.09-2.64,10.15.16-2.4.77-5.18,2.14-6,2.38-1.37,6.81,2.12,7.74,3.17.74.84.47,3.91,0,5.74.71-.44,2.94-2.49,3.84-2.71.51-2.33.26-5.19-.89-6.48" transform="translate(-0.08 -0.51)"/><path class="i" d="M47.88,92.17c-2.48,2.07-7.31,8.19-9.61,13.93a19.68,19.68,0,0,0-1.1,6.43C56,102,72,99.5,93.79,106c-1.72-5.9-15.36-7.26-16.3-8.21-.78-.8-29.62-5.58-29.62-5.58" transform="translate(-0.08 -0.51)"/><path class="g" d="M110.58,16.44c-.63-2.87-.31-6.38,1.1-8s8.93-6.86,12.54-4.78S128,16.92,127,18.35s-6.42,4-8.15,4.47c-2.19-2.39-4.39-5.42-8.3-6.38" transform="translate(-0.08 -0.51)"/><path class="h" d="M124,3.68c-3.6-2.07-11.13,3.19-12.54,4.78a4.4,4.4,0,0,0-.68,1.13c1.37-1.51,6.63-4.56,9.41-2.84s1.27,8.12.52,9.36c-.59,1-3.42,2.54-5.26,3.36.37.42,2.87,2.94,3.23,3.34,1.72-.48,7.21-3,8.15-4.47s.78-12.6-2.82-14.67" transform="translate(-0.08 -0.51)"/><path class="j" d="M99.15,95.06c0,.64,13.32,19.3,13.74,32.69l-.21.16a30.18,30.18,0,0,0,5.54-.37s-.46-21.78-12.57-34.84c-3.89,1.43-6.5,1.93-6.5,2.35" transform="translate(-0.08 -0.51)"/><path class="f" d="M36.12,114.55c0,.22,0,.66,0,1.26l.64-.3a17.05,17.05,0,0,1,3.71-3.16c1.27-10.19,14.41-15.28,16.92-15.07a5.55,5.55,0,0,0,0-.61,38.08,38.08,0,0,1-9.82-4.5c-.94,1.12-11.13,8.51-11.44,22.38" transform="translate(-0.08 -0.51)"/><path class="k" d="M45.78,19.28C42.28,21.08,39,34.83,35,39.45,34.15,42.18,26,51,24.35,55.63s1,19.76,16.33,33c3.92,3.39,33.61,24,71.79.61C130,83.56,134.4,69.29,135.83,64.46s-2.65-17-11.64-23.75c-3.06-12.61-9.39-19.54-11.84-21.86S76.21.36,45.78,19.28" transform="translate(-0.08 -0.51)"/><path class="l" d="M126.26,40c-3.13-12.76-9.61-19.78-12.12-22.12S77.16-.83,46,18.31c-1.2.61-2.38,2.6-3.56,5.12,1-2.06,2-3.64,3.05-4.17,30.42-18.92,64.11-2.73,66.56-.42s8.78,9.25,11.84,21.86c9,6.73,13.07,18.91,11.64,23.75a39,39,0,0,1-25.11,25.43C98.3,97.27,86.81,99.89,76.77,100c10.56.08,22.77-2.48,35.7-10.26A39.59,39.59,0,0,0,138.17,64c1.46-4.89-2.72-17.22-11.91-24" transform="translate(-0.08 -0.51)"/><path class="m" d="M46.37,21.5C43.11,23.18,40.11,36,36.31,40.34c-.76,2.55-8.36,10.79-9.87,15.11s.95,18.45,15.19,30.81c3.64,3.16,35.48,20.78,68.9.37,11.44-4.84,18.09-13.95,19.84-23,.89-4.62-2.71-15.85-11.06-22.13-2.85-11.77-8.94-19.85-11.22-22s-36-14.81-61.71,2" transform="translate(-0.08 -0.51)"/><path class="n" d="M53.59,23.67c2.09-.21,19.64-10.15,35.2,1-2.61,4.36-7.73,18-8,19.78s-20.58,1-21.83,1.17-5.33-21.9-5.33-21.9" transform="translate(-0.08 -0.51)"/><path class="k" d="M54.12,23.69c2,0,7.08,2.87,8.33,18.39a37.08,37.08,0,0,1,15.43,0c.42-1.81,4.44-17.12,10.4-17.44A33.61,33.61,0,0,0,81.6,46.34c-.21.64-10.86,6.06-16.71,4.78s-8.78-3.3-9.09-4.47,2.65-.66,3.13-4.25c1.36-10.1-4.8-18.71-4.8-18.71" transform="translate(-0.08 -0.51)"/><path class="o" d="M64.67,62.69c.92.63.86,5.29-.08,5.69S52.21,68,45.47,56.47c-.16-.27-2-3,.08-3.67s6.74-1.36,7.83-1,2,7.5,11.28,10.84" transform="translate(-0.08 -0.51)"/><path class="d" d="M60.92,63.37c.69.38.73,2.08.09,2.42s-5.54-1.28-13-8c-.17-.15-1.57-2-.18-2.59s3.42-1.1,3.83-.37a22,22,0,0,0,9.24,8.58" transform="translate(-0.08 -0.51)"/><path class="p" d="M80.76,48a31.82,31.82,0,0,1,6,1.91,25.45,25.45,0,0,1,4.54,4c1,1.2,6,.8,6.11,1.12s.18,2.52-.55,3.19c-12.77,11.72-32,10.93-32.44,10a11.77,11.77,0,0,1-.08-4.7S76.45,48.43,80.76,48" transform="translate(-0.08 -0.51)"/><path class="q" d="M32.48,117.47c.13,1.91,15.2,12.92,12.07,36.68a6.29,6.29,0,0,1,6.42-.64c-1.72-1.44-3-1.28-4.07-1.59s6.89-23.6-9.71-36.52c-.16-4.15,0-6.55.78-8.88a33.34,33.34,0,0,1,9.4-13.93,7,7,0,0,0,.14-2l-1.86.13c-3.76,2.07-14.26,11-13.16,26.79" transform="translate(-0.08 -0.51)"/><path class="d" d="M82.65,57.35c2.4-2.13,1.88-4.25,1.15-6.7,1.57.64,3.44,1.49,3.66,3.3.42,3.51,6,3.63,6.06,3.83s-.73,1-2.92,2.13c-11.84,6.31-23.17,7.19-23.51,6.38s-.3-.41-.1-1.49c0,0,12.9-5,15.67-7.44" transform="translate(-0.08 -0.51)"/><path class="b" d="M85.86,50.59c-3.36-1.5-5.25-2.39-5.25-4.15S82.1,23.82,89.28,24.8c9.3,1.28,17.76,18.76,13.19,28.49-1.93,4.11-7.12,4.31-12.2,2.55-2.16-.75-1.19-3.83-4.4-5.26" transform="translate(-0.08 -0.51)"/><path class="q" d="M86.39,50.11c-3-1.34-4.72-2.15-4.72-3.72S83,26.07,89.45,27c8.35,1.15,16,16.85,11.84,25.59-1.74,3.69-6.39,3.87-11,2.29-1.94-.67-1.07-3.44-4-4.73" transform="translate(-0.08 -0.51)"/><path class="e" d="M86.91,49.09c-2.67-1.19-4.18-1.9-4.18-3.3s1.19-18,6.9-17.22c7.4,1,14.14,14.94,10.5,22.68-1.54,3.27-5.66,3.43-9.71,2-1.72-.59-.95-3-3.51-4.19" transform="translate(-0.08 -0.51)"/><path class="f" d="M87.43,48.61c-2.33-1-3.64-1.66-3.64-2.88s1-15.7,6-15c6.45.89,12.33,13,9.15,19.77-1.34,2.85-4.94,3-8.46,1.77-1.5-.52-.83-2.66-3.06-3.65" transform="translate(-0.08 -0.51)"/><path class="b" d="M56.1,47.92c3.11-1.5,4.39-2.23,4.39-4s-1.25-22.17-7.68-20.1S36,41.06,40.27,50.79c1.79,4.11,6.58,4.31,11.28,2.55,2-.75,1.57-4,4.54-5.42" transform="translate(-0.08 -0.51)"/><path class="q" d="M55.26,47.34c2.75-1.33,3.89-2,3.89-3.54S58,24.14,52.34,26,37.47,41.26,41.22,49.89c1.59,3.64,5.84,3.82,10,2.26,1.77-.66,1.39-3.54,4-4.81" transform="translate(-0.08 -0.51)"/><path class="e" d="M54.42,46.22c2.4-1.16,3.4-1.73,3.4-3.09s-1-17.16-5.94-15.55-13,13.33-9.7,20.86c1.38,3.18,5.09,3.33,8.73,2,1.55-.58,1.21-3.09,3.52-4.2" transform="translate(-0.08 -0.51)"/><path class="f" d="M54.11,45.64c2.05-1,2.9-1.48,2.9-2.64s-.83-14.65-5.08-13.28S40.85,41.11,43.65,47.54c1.18,2.72,4.35,2.85,7.46,1.69,1.32-.49,1-2.64,3-3.59" transform="translate(-0.08 -0.51)"/><path class="r" d="M55.2,48.74c-.34-.34,4.49-3.24,5.75-3.56s16.23-.83,18.23-.05a4.55,4.55,0,0,1,2.66,3.08c.35,1.24-11.28,5.5-15.91,5S55.82,49.38,55.2,48.74" transform="translate(-0.08 -0.51)"/><path class="s" d="M55.57,48c-2,1.25-4.07,4.31-3.45,6.22s8,9.25,12.07,9.25c4.23,0,15.83-6.06,17.55-7.66s.94-8.93-.94-9.41-9.9,6.4-16.14,5.74c-4.54-.48-8.31-4.62-9.09-4.15" transform="translate(-0.08 -0.51)"/><path class="b" d="M56.2,48.92c-1.8,1-3.58,3.44-3,5S60.52,62,64.11,62s13.26-4.73,14.78-6,.79-7.65-.83-7.53c-2.32.17-8.23,5.16-13.72,4.63-4-.38-7.46-4.59-8.15-4.21" transform="translate(-0.08 -0.51)"/><path class="g" d="M56.83,50.12c-1.55.75-3.09,2.59-2.62,3.73s6.72,7,9.82,7,10.7-3.4,12-4.36.64-6.19-.71-5.65c-2.73,1.08-6.56,3.92-11.3,3.52-3.45-.29-6.61-4.55-7.2-4.27" transform="translate(-0.08 -0.51)"/><path class="a" d="M96.55,43.39a4,4,0,1,1-4-4.07,4,4,0,0,1,4,4.07" transform="translate(-0.08 -0.51)"/><path class="t" d="M95.11,43.47a2.48,2.48,0,1,1-2.48-2.53,2.5,2.5,0,0,1,2.48,2.53" transform="translate(-0.08 -0.51)"/><path class="a" d="M92,42.15a1.19,1.19,0,1,1-1.19-1.21A1.2,1.2,0,0,1,92,42.15" transform="translate(-0.08 -0.51)"/><path class="a" d="M94.94,45.27a.54.54,0,1,1-.54-.55.55.55,0,0,1,.54.55" transform="translate(-0.08 -0.51)"/><path class="a" d="M53.5,42.52a3.13,3.13,0,1,1-3.13-3.19,3.16,3.16,0,0,1,3.13,3.19" transform="translate(-0.08 -0.51)"/><path class="k" d="M45.32,56.58c-4.81,4.15-13.63,17.7-3.45,32.64,3.16,4.63,23.92,16.27,49.31,9.46,4.7-1.26,18.49-18.61,6.16-41.78-7.21,6.7-39,21.69-52-.32" transform="translate(-0.08 -0.51)"/><path class="u" d="M99,60.42c3.84,16.74-4,29.48-11.53,31.79C65.27,99,47,89.34,44.22,84.71c-5.72-9.59-5.64-16.91.57-27.59C39.9,61.76,32,74.87,41.87,89.28c3.16,4.63,23.92,16.27,49.31,9.46,4.46-1.2,17.1-16.9,7.82-38.32" transform="translate(-0.08 -0.51)"/><path class="v" d="M53,42.78a1.8,1.8,0,1,1-1.8-1.83A1.82,1.82,0,0,1,53,42.78" transform="translate(-0.08 -0.51)"/><path class="i" d="M97.14,56.9c-7.21,6.7-36,20-52-.32,6.95,14.09,32.49,18.07,52,.32" transform="translate(-0.08 -0.51)"/><path class="a" d="M51.2,41.61A1.19,1.19,0,1,1,50,40.41a1.2,1.2,0,0,1,1.19,1.21" transform="translate(-0.08 -0.51)"/><path class="a" d="M53.09,43.65a.54.54,0,1,1-.54-.55.55.55,0,0,1,.54.55" transform="translate(-0.08 -0.51)"/><path class="j" d="M112.94,127.43s0,.06,0,.09C104.59,133.26,100.78,145,99.79,151c-3,.32-6.69,4.31-5.8,7.18-.26-2.31,3-6.06,6.63-6.59,2.93-15.95,14.31-23.6,17.66-24.24a25.2,25.2,0,0,0-5.33.12" transform="translate(-0.08 -0.51)"/><path class="g" d="M99.75,150.94v0c-3,.32-6.53,4.25-5.8,7.18a2.06,2.06,0,0,0,.29.51c-.17,1.11.07,2.3,1,2.53a4.78,4.78,0,0,0,1.26.11c.21,1.35,2,3.32,3.18,2.51a4.84,4.84,0,0,0,.87-.76c.67.79,1.61,1.32,2.34.84a5,5,0,0,0,1.14-1.09l.4-.09c.09-.3,1.69-8.39-4.67-11.75" transform="translate(-0.08 -0.51)"/></svg>