<?xml version="1.0" encoding="utf-8"?>
<!-- Generator: Adobe Illustrator 23.0.4, SVG Export Plug-In . SVG Version: 6.00 Build 0)  -->
<svg version="1.1" id="图层_1" xmlns="http://www.w3.org/2000/svg" xmlns:xlink="http://www.w3.org/1999/xlink" x="0px" y="0px"
	 viewBox="0 0 467.4 155.8" style="enable-background:new 0 0 467.4 155.8;" xml:space="preserve">
<style type="text/css">
	.st0{fill:#231815;}
</style>
<title>字魂</title>
<path class="st0" d="M218.4,1.6c-1.3,0-2.4,1-2.4,2.3c0,0.7,0.3,1.3,0.7,1.8c4.1,4.3,6.6,9.8,7.1,15.6c0.6,4.9,4.8,8.7,9.7,8.8
	c7.3-0.3,12.1-4.4,11.2-13.1C243.7,7.3,233,2.6,218.4,1.6 M255.6,58.9l-0.3-5.3l-63.8,3l3.4,6.8L255.6,58.9z M244.6,55.1l2.9,2.4
	c-3.9,5.9-8.5,12.6-13.1,18.3c-1.4,1.7-0.2,3.9,2.7,2.7c7-3,11.7-4.9,16.9-7.3c2.1-0.9,4.5-1.3,6.8-1l7.1,0.3c3.9,0.2,5.6-2,3.4-5.2
	l-13.9-19.1L244.6,55.1z M267.2,52.4c-1.2,2.4,0.5,3.7,2.6,2.7c6.1-2.9,10.4-5.4,15.5-8.2c1.9-0.8,3.9-1.2,5.9-1.2l8.4,0.2
	c1.8,0.4,3.6-0.7,4.1-2.5c0.3-1.2-0.1-2.4-1-3.2l-19.1-21.4l-10.2,10.2l-91.6,3.4l1,6.8l91.4-4.4c-2,6.1-4.4,12.1-7.1,17.8
	 M161.9,104.1L300.7,97c2.7-0.2,4.1-2,1.5-4.6l-16.5-15.6l-10.4,15.2l-116.3,5L161.9,104.1z M186.2,23.2c-1-3.6-3.4-3-4.4,0
	c-2.1,7.5-6.6,14.2-12.8,19.1c-2.9,2.4-4.7,5.9-4.9,9.7c0,5.6,4.5,10.2,10.1,10.2c0.3,0,0.6,0,0.9,0C188.1,61,192.1,42.4,186.2,23.2
	 M204.8,127.4c-2.4-0.8-4.6,0.8-1.9,3.4c5.2,4.6,10.5,12.1,10.5,16.5c0,6.8,2.5,8.7,8.5,7.8c19.1-2.7,25.4-15.5,24.1-42.5
	c-1-22.1-12.2-32.3-23.3-37.6c-0.8-0.5-1.9-0.3-2.4,0.6c-0.3,0.5-0.3,1.1-0.1,1.6c6.3,15.9,7.7,33.4,4.1,50.2
	c-1.4,7.8-9.7,3.4-19.4,0"/>
<path class="st0" d="M450.8,115.6l-1-1.9l-12.1,2.9c3.6-5.8,6.4-11.9,8.5-18.4l2.4-0.5c1.2-0.3,1.6-2,0.2-2.4l-14.3-3
	c-0.2,7.3-1,14.6-2.4,21.8c-0.5,1.9-1.9,3.6-3.7,4.4l3.6,6.1c1.2,1.9,2.4,1.9,3.8,1c4.7-3.4,9.9-6.5,15.1-9.9 M349.8,150.8
	c-1,0.6-1.4,2-0.7,3c0.6,0.9,1.8,1.3,2.8,0.9c57-28.4,70.4-55.9,70.4-94.4V26l-18.9,1.4v33C403.3,94.2,393.6,115.6,349.8,150.8
	 M429.3,24.5l3.9,1v60.7c0,3.7,2.4,5.1,6,3.9c5.8-1.9,11.7-5.2,11.7-10.2V36.5c-0.2-1.6,0.6-3.2,2-4.1l3-1.4c1.2-0.5,1.8-1.8,1.3-3
	c-0.1-0.3-0.4-0.6-0.6-0.9l-14.6-13.1L429.3,24.5z M396.8,26.1l3.4,1c7.2-3.5,13.2-9.1,17.2-16.1l3.1-0.8c2-0.5,2.9-3.4,0-4.1
	l-20.6-4.6C399.3,9.8,398.2,18,396.8,26.1 M361.9,107.8l-1.4-3.4l-33.3,7.1c8.3-10,14.9-21.1,19.7-33.1l3.9-1.2
	c1-0.4,1.4-1.5,1.1-2.4c-0.3-0.7-0.9-1.1-1.6-1.2l-21.4-5.4c-1.5,13.2-4.4,26.3-8.5,38.9c-1.9,3.6-5.1,6.4-9,7.7l7.7,15
	c0.6,1.8,2.5,2.7,4.3,2.2c0.8-0.3,1.4-0.8,1.9-1.5c1.6-1.8,3.5-3.3,5.6-4.6c12.2-6.8,20.5-12.2,31.1-18.2 M380,31l56.6-3.6v-4.8
	l-57.5,2.2L380,31z M396.5,57.2l35.9-2l-2.2-6.5L393.8,51L396.5,57.2z M446,106.1c-1.4-0.5-1.9,0.5-1.2,1.9c1.5,3.7,2.2,7.7,2,11.7
	c0,3.6,1.5,6,3.8,6c3.4,0,4.7-3.4,4.7-6.3C455,113.5,451.4,108.4,446,106.1 M383.8,84.1l63.9-2.9v-5.4l-63.9,2.6V84.1z M379.5,93.5
	c6.5-2.7,12.8-5.1,12.8-9.9V25l-17.7-6v71.4c0.1,2,1.8,3.5,3.8,3.3C378.8,93.7,379.2,93.6,379.5,93.5 M463.5,109.8
	c0.3-2.4-2.4-2.7-3-0.5c-1.7,5.6-4.4,14.6-7.3,21.4c-1.4,2.9-4.1,4.9-7.3,5.2l-11,0.3c-5.8,0.2-7.9-1.9-7.7-7l1-29.2l2.9-1.5
	c0.8-0.4,1.1-1.5,0.6-2.3c-0.2-0.4-0.7-0.7-1.1-0.8L412,91.5l-1.4,40.3c-0.3,12.3,6.1,20.1,16.7,19.7l21.6-0.7
	c10.9-0.3,16.2-5.1,17.9-10.2c1.2-3.4,0.7-6.1-2.1-7.7C461.3,131,462.2,121,463.5,109.8 M319.7,31.9l46.4-2.7
	c1.5-0.2,2.6-1.7,2.3-3.2c-0.1-0.7-0.4-1.3-0.9-1.7L355.4,13l-8,12.1l-32,0.7L319.7,31.9z M317.5,69.2l53-3.1
	c1.4-0.1,2.5-1.2,2.4-2.6c0-0.7-0.3-1.3-0.9-1.8l-12.8-11.9l-7.9,11.7l-38.3,1.4L317.5,69.2z M352.7,87.3c-1.9-0.8-3.9,0-2.6,2.4
	c3.8,6.5,6.1,19.2,6.5,27.1c0.1,4.4,3.6,8,8,8.2c5.4-0.3,9.5-4.1,8.3-13.8c-1.4-11.2-10.2-19.2-20.3-23.7"/>
<polygon class="st0" points="48.4,54.4 48.4,70.7 37.7,77.8 37.7,61 "/>
<path class="st0" d="M37.7,78.4h-0.3c-0.2-0.1-0.3-0.3-0.3-0.5V61c0-0.2,0.1-0.4,0.3-0.5L48,53.9c0.2-0.1,0.4-0.1,0.6,0
	c0.2,0.1,0.3,0.3,0.3,0.5v16.2c0,0.2-0.1,0.4-0.3,0.5l-10.6,7.2C38,78.4,37.9,78.4,37.7,78.4z M38.4,61.5v15.2l9.4-6.3V55.6
	L38.4,61.5z"/>
<path class="st0" d="M37.7,61.7h-0.3L8.8,45c-3.5-1.6-5.5-5.3-5-9.1c0.6-3.2,2.7-5.8,5.7-7.1L56.9,2.5c8.4-5,18.2-1.8,24,2.5
	c0.2,0.1,0.3,0.3,0.3,0.5c0,0.2-0.2,0.4-0.3,0.5L27.4,34.4c-1.3,0.7-2.1,2-2.1,3.4c0,1.5,0.7,2.8,2,3.6l21.5,12.5
	c0.2,0.1,0.3,0.3,0.3,0.5c0,0.2-0.1,0.4-0.3,0.5L38,61.5C38,61.6,37.9,61.6,37.7,61.7z M66.4,1.2c-3.1,0-6.1,0.8-8.8,2.4L10.1,29.9
	c-2.5,1.1-4.4,3.4-5,6.1c-0.5,3.3,1.4,6.6,4.5,7.9l28.2,16.5l9.4-5.9l-20.7-12l0,0c-1.6-1-2.6-2.8-2.5-4.7c0-1.9,1.1-3.7,2.8-4.5
	L79.6,5.4C75.7,2.8,71.1,1.3,66.4,1.2z"/>
<path class="st0" d="M37.7,78.4c-0.1,0-0.2,0-0.3,0l-30-16.9c-2.6-1.8-4.1-4.9-3.7-8.1v-15c-0.1-0.4-0.1-0.9,0-1.4
	c0.1-0.3,0.3-0.5,0.6-0.5C4.7,36.5,5,36.7,5,37v1.2c0.4,2.4,2,4.4,4.1,5.4L38,60.6c0.2,0.1,0.3,0.3,0.3,0.5v16.7
	c0,0.2-0.1,0.4-0.3,0.5C37.9,78.4,37.8,78.4,37.7,78.4z M5,41.6v11.7c-0.4,2.7,0.8,5.5,3,7.1l29,16.4V61.5L8.5,44.8
	C7.1,44,5.9,42.9,5,41.6z"/>
<path class="st0" d="M84,135.2h-0.3c-0.2-0.1-0.3-0.3-0.3-0.5v-14.8c0-0.2,0.1-0.4,0.3-0.5l28.9-18l0,0c1-0.6,1.6-1.8,1.5-3
	c-0.1-1.2-0.9-2.2-2-2.7l-20.7-8.9c-0.2-0.1-0.3-0.3-0.4-0.6c0-0.2,0.2-0.5,0.4-0.6c8-3.6,17.1-3.7,25.1-0.2l18.7,8.1
	c2.9,1.3,4.2,4.7,2.9,7.6c-0.5,1.1-1.3,1.9-2.2,2.6l-51.6,31.4C84.2,135.2,84.1,135.2,84,135.2z M84.7,120.3v13.3l50.8-30.9
	c2.1-1.3,2.8-4,1.5-6.1c-0.5-0.8-1.2-1.5-2.1-1.8l-18.7-8.2c-7.2-3.1-15.4-3.3-22.7-0.3l19.3,8.3c2.3,1,3.3,3.6,2.4,5.9
	c-0.4,0.9-1,1.6-1.8,2.1L84.7,120.3z"/>
<path class="st0" d="M135.5,103.3L84,134.7V10.2c0-2.8-2.3-5-5-5c-0.8,0-1.7,0.2-2.4,0.6L24.4,35c-1.5,1.1-1.9,3.2-0.9,4.7
	c0.2,0.3,0.5,0.6,0.9,0.9l10.5,6l33.2-20.1v123.6c0,4.3,5.5,6.4,9.2,4.2l57.5-36.8c1.9-1.1,3-3.1,3-5.2v-11.4
	C137.3,101.8,136.4,102.6,135.5,103.3z"/>
<path class="st0" d="M74.1,155.8c-1.3,0-2.5-0.3-3.6-0.9c-1.8-0.9-2.9-2.7-2.9-4.7V27.6L35.3,47.2c-0.2,0.1-0.4,0.1-0.6,0l-10.6-6
	c-1.2-0.7-1.9-2-1.9-3.4c0-1.4,0.7-2.7,1.9-3.4l52-29.1c2.7-1.5,6.1-0.6,7.7,2.1c0.5,0.9,0.7,1.8,0.7,2.8v123.4l50.8-30.9
	c0.9-0.6,1.7-1.3,2.3-2.2c0.1-0.2,0.4-0.3,0.7-0.2c0.3,0.1,0.4,0.3,0.4,0.6v11.4c0,2.3-1.2,4.5-3.2,5.7l-57.5,36.8
	C76.8,155.4,75.4,155.8,74.1,155.8z M68.2,25.9c0.1,0,0.2,0,0.3,0c0.2,0.1,0.3,0.3,0.3,0.5v123.7c0,1.6,0.9,3,2.3,3.7
	c1.9,1,4.1,1,6,0l57.7-36.8c1.6-1,2.6-2.8,2.5-4.7v-9.7c-0.5,0.5-1,0.9-1.5,1.2l0,0l-51.6,31.4c-0.2,0.1-0.4,0.1-0.6,0
	c-0.2-0.1-0.3-0.3-0.3-0.5V10.2c0-1.6-0.8-3-2.2-3.8c-1.4-0.8-3-0.8-4.4,0l-52,29.1c-1.2,0.7-1.7,2.3-0.9,3.6
	c0.2,0.4,0.5,0.7,0.9,0.9l10.2,5.9l32.9-20C67.9,25.9,68.1,25.9,68.2,25.9z"/>
<path class="st0" d="M91.3,97.9l15.8,7.1l5.4-3.2c1.8-1.1,2.4-3.5,1.2-5.3c-0.4-0.6-1-1.1-1.6-1.5l-20.3-8.8L91.3,97.9z"/>
<path class="st0" d="M107.1,105.7h-0.3L91,98.6c-0.2-0.1-0.4-0.3-0.4-0.6l0.5-11.7c0-0.2,0.1-0.4,0.3-0.5c0.2-0.1,0.4-0.1,0.6,0
	l20.3,8.8c1.6,0.7,2.6,2.2,2.7,3.9c0.1,1.7-0.7,3.3-2.2,4.2l-5.4,2.9L107.1,105.7z M91.9,97.5l15.1,6.8l5.2-3c1.1-0.6,1.7-1.8,1.6-3
	c-0.1-1.2-0.8-2.3-2-2.8L92.3,87L91.9,97.5z"/>
<path class="st0" d="M121.9,73.2h-0.3l-12.2-6.7c-0.2-0.1-0.3-0.3-0.3-0.5V47.6c0-3.3-1.7-6.4-4.6-8.1l-12.6-7.8
	c-0.2-0.1-0.3-0.3-0.3-0.5V16.5c0-0.2,0.1-0.4,0.3-0.5c0.2-0.1,0.4-0.1,0.6,0l24.7,15c3.2,1.9,5.2,5.4,5.2,9.2v32.5
	c0,0.2-0.1,0.4-0.3,0.5C122.1,73.2,122,73.3,121.9,73.2z M110.3,65.7l10.9,6V40.1c0-3.3-1.8-6.4-4.6-8.2L92.9,17.6V31l12.3,7.6
	c3.2,2,5.1,5.4,5.1,9.2L110.3,65.7z"/>
<path class="st0" d="M133.5,65.5l-11.6,7.1V40.1c0-3.6-1.9-6.9-4.9-8.7L92.2,16.5l13.5-5.6l23,13.9c3,1.8,4.9,5.1,4.9,8.7
	L133.5,65.5z"/>
<path class="st0" d="M121.9,73.2c-0.1,0-0.2,0-0.3,0c-0.2-0.1-0.4-0.4-0.3-0.6V40.1c0-3.3-1.8-6.4-4.6-8.2L91.9,17
	c-0.2-0.1-0.3-0.3-0.3-0.6c0-0.2,0.1-0.5,0.4-0.5l13.5-5.6c0.2-0.1,0.4-0.1,0.6,0l22.8,13.8c3.2,2,5.2,5.5,5.2,9.2v32.1
	c0,0.2-0.1,0.4-0.3,0.5l-11.6,7.1C122.1,73.2,122,73.2,121.9,73.2z M93.6,16.6l23.7,14.3c3.2,1.9,5.2,5.4,5.2,9.2v31.5l10.4-6.3
	V33.5c0-3.3-1.7-6.4-4.6-8.2l-22.7-13.7L93.6,16.6z"/>
<path class="st0" d="M21.6,81.6v20.7c0,5.4,3,10.4,7.8,12.9l14,7.3L32.8,130l-16.5-9.6c-4.4-2.6-7.1-7.4-7.1-12.5v-22L21.6,81.6z"/>
<path class="st0" d="M32.7,130.5h-0.3L16,120.9c-4.6-2.7-7.4-7.7-7.4-13v-22c0-0.3,0.2-0.5,0.4-0.6L21.4,81c0.2-0.1,0.4-0.1,0.6,0
	c0.2,0.1,0.2,0.3,0.2,0.5v20.7c0,5.2,2.9,10.1,7.7,12.4l13.9,7.2c0.2,0.1,0.3,0.3,0.3,0.5c0,0.2-0.1,0.4-0.3,0.5l-10.6,7.6
	C33.1,130.5,32.9,130.6,32.7,130.5z M9.9,86.3v21.5c0,4.9,2.6,9.5,6.8,12l16.1,9.3l9.5-6.8l-13-6.8c-5.1-2.6-8.2-7.8-8.2-13.5V82.4
	L9.9,86.3z"/>
<path class="st0" d="M32.7,142.7c-0.1,0-0.2,0-0.3,0L7.3,127.5c-4.5-2.7-7.3-7.6-7.3-12.9V81.6c0-0.2,0.1-0.4,0.3-0.5
	c0.2-0.1,0.4-0.1,0.6,0l8.7,4.3c0.2,0.1,0.4,0.3,0.4,0.5v22c0,4.9,2.6,9.5,6.8,12l16.3,9.6c0.2,0.1,0.3,0.3,0.3,0.5v12.2
	c0,0.2-0.1,0.4-0.3,0.5L32.7,142.7z M1.2,82.6v32c0,4.9,2.6,9.4,6.8,11.8L32.2,141v-10.7l-16.1-9.4c-4.6-2.7-7.4-7.7-7.4-13V86.3
	L1.2,82.6z"/>
<path class="st0" d="M9.2,86.5H8.9l-8.6-4.4C0.1,82,0,81.8,0,81.5c0-0.2,0.2-0.5,0.4-0.5l11.1-4.2c0.1,0,0.3,0,0.4,0l9.9,4.2
	c0.2,0.1,0.4,0.3,0.4,0.6c0,0.2-0.2,0.5-0.4,0.5L9.5,86.5L9.2,86.5z M2.1,81.8l7.1,3.4l10.6-3.7l-8.2-3.4L2.1,81.8z"/>
<polygon class="st0" points="43.4,134.1 43.4,122.3 32.7,129.9 32.7,142.1 "/>
<path class="st0" d="M32.7,142.7h-0.3c-0.2-0.1-0.4-0.3-0.3-0.5v-12.2c0-0.2,0.1-0.4,0.2-0.5l10.6-7.6c0.2-0.1,0.4-0.1,0.6,0
	c0.2,0.1,0.3,0.3,0.3,0.6v11.7c0,0.2-0.1,0.4-0.2,0.5l-10.5,8.1C33.1,142.8,32.9,142.8,32.7,142.7z M33.2,130.2v10.6l9.4-7.1v-10.2
	L33.2,130.2z"/>
<path class="st0" d="M71.7,154.9L71.7,154.9c-0.2,0-14.3-2.6-14.3-16.5V32.8c0-0.2,0.1-0.4,0.3-0.5l10.4-6.4c0.2-0.1,0.4-0.1,0.6,0
	c0.2,0.1,0.3,0.3,0.3,0.5l3.4,128c0,0.2-0.1,0.3-0.2,0.5C72.1,154.9,71.9,155,71.7,154.9z M58.5,33.1v105.3
	c0,7.4,5.3,13.7,12.5,15.1L67.7,27.6L58.5,33.1z"/>
</svg>
